<svg width="623" height="420" viewBox="0 0 623 420" fill="none" xmlns="http://www.w3.org/2000/svg">
<path d="M410.2 172.6C412.38 172.33 414.11 170.73 416.09 169.8C417.582 169.116 419.218 168.801 420.857 168.883C422.497 168.965 424.093 169.441 425.51 170.27C428.32 171.95 430.32 173.96 430.51 177.27L426.84 181.27" fill="#1B1B1B"/>
<path d="M433.44 193L427.54 228.42C426.54 234.42 423.84 243.09 414.39 241.07C406.32 238.7 405.53 230.52 406.47 224.9C406.92 222.23 407.29 220.01 407.31 219.73C407.31 219.73 398.44 217.38 399.31 208.35C399.72 203.98 401.31 195.06 402.79 187.01C403.571 182.837 405.895 179.111 409.299 176.574C412.703 174.037 416.938 172.875 421.16 173.32L422.03 173.41C431.32 175 435.23 183.75 433.44 193Z" fill="#F4D3BD"/>
<path d="M407.31 219.63C411.467 220.144 415.682 219.41 419.42 217.52C419.42 217.52 415.96 223.72 407.05 221.96L407.31 219.63Z" fill="#EAAE94"/>
<path d="M403.57 192.44C404.591 192.349 405.615 192.313 406.64 192.33C408.31 192.52 409.48 193.26 409.64 193.14C409.8 193.02 409.56 192.81 409.05 192.48C408.318 192.03 407.494 191.75 406.64 191.66C405.812 191.548 404.969 191.634 404.18 191.91C403.67 192.13 403.48 192.36 403.57 192.44Z" fill="#1B1B1B"/>
<path d="M417.27 194C417.45 194.16 418.67 193.71 420.33 193.91C421.343 194.124 422.345 194.391 423.33 194.71C423.42 194.65 423.25 194.38 422.74 194.05C422.008 193.61 421.189 193.334 420.34 193.24C419.515 193.128 418.675 193.214 417.89 193.49C417.37 193.67 417.18 193.9 417.27 194Z" fill="#1B1B1B"/>
<path d="M417 196.19C416.971 196.448 417.044 196.707 417.203 196.912C417.361 197.117 417.593 197.253 417.85 197.29C418.102 197.326 418.358 197.264 418.567 197.117C418.775 196.97 418.919 196.75 418.97 196.5C418.999 196.242 418.926 195.983 418.767 195.778C418.609 195.573 418.377 195.437 418.12 195.4C417.868 195.364 417.612 195.426 417.403 195.573C417.195 195.72 417.051 195.94 417 196.19Z" fill="#1B1B1B"/>
<path d="M404 194.77C403.971 195.027 404.044 195.286 404.203 195.491C404.361 195.697 404.593 195.832 404.85 195.87C405.101 195.906 405.356 195.845 405.564 195.7C405.772 195.556 405.917 195.337 405.97 195.09C406.001 194.83 405.93 194.569 405.771 194.361C405.612 194.154 405.379 194.017 405.12 193.98C404.868 193.944 404.612 194.006 404.403 194.153C404.195 194.299 404.051 194.52 404 194.77Z" fill="#1B1B1B"/>
<path d="M411.71 203.11C411.004 202.799 410.261 202.581 409.5 202.46C409.15 202.39 408.82 202.28 408.79 202.04C408.802 201.679 408.924 201.33 409.14 201.04C409.56 200.22 410 199.36 410.47 198.46C411.674 196.273 412.707 193.996 413.56 191.65C412.177 193.729 410.963 195.916 409.93 198.19L408.64 200.8C408.367 201.201 408.25 201.688 408.31 202.17C408.351 202.299 408.419 202.418 408.511 202.519C408.602 202.619 408.715 202.698 408.84 202.75C409.029 202.824 409.228 202.871 409.43 202.89C410.178 203.056 410.944 203.129 411.71 203.11Z" fill="#1B1B1B"/>
<path d="M418.94 187.92C419.03 188.27 420.26 188.24 421.68 188.57C423.1 188.9 424.21 189.42 424.44 189.14C424.67 188.86 424.37 188.65 423.94 188.27C423.365 187.778 422.679 187.435 421.94 187.27C421.218 187.091 420.462 187.091 419.74 187.27C419.2 187.51 418.91 187.75 418.94 187.92Z" fill="#1B1B1B"/>
<path d="M404.29 188.14C404.4 188.44 405.62 188.35 407.03 188.56C408.44 188.77 409.59 189.16 409.79 188.9C409.99 188.64 409.69 188.5 409.23 188.19C408.608 187.818 407.917 187.576 407.198 187.478C406.48 187.38 405.749 187.428 405.05 187.62C404.52 187.78 404.25 188 404.29 188.14Z" fill="#1B1B1B"/>
<path d="M432 199.64C432.16 199.58 438.39 198.45 437.55 204.64C436.71 210.83 430.71 208.64 430.72 208.49C430.73 208.34 432 199.64 432 199.64Z" fill="#F4D3BD"/>
<path d="M432.92 206.38C432.92 206.38 433.01 206.47 433.18 206.58C433.421 206.721 433.708 206.764 433.98 206.7C434.411 206.505 434.782 206.198 435.055 205.811C435.328 205.424 435.492 204.971 435.53 204.5C435.623 203.973 435.592 203.432 435.44 202.92C435.41 202.72 435.332 202.531 435.211 202.368C435.091 202.206 434.933 202.076 434.75 201.99C434.632 201.939 434.499 201.932 434.376 201.971C434.253 202.009 434.148 202.091 434.08 202.2C433.97 202.36 434 202.48 433.96 202.49C433.92 202.5 433.84 202.37 433.96 202.12C434.013 201.973 434.115 201.849 434.25 201.77C434.344 201.718 434.447 201.685 434.553 201.673C434.659 201.661 434.767 201.67 434.87 201.7C435.118 201.779 435.341 201.923 435.517 202.116C435.692 202.309 435.814 202.545 435.87 202.8C436.06 203.37 436.108 203.977 436.01 204.57C435.956 205.129 435.736 205.66 435.378 206.093C435.02 206.526 434.54 206.842 434 207C433.829 207.023 433.655 207.009 433.491 206.957C433.327 206.905 433.176 206.817 433.05 206.7C432.91 206.53 432.89 206.39 432.92 206.38Z" fill="#EAAE94"/>
<path d="M401 185C402.944 185.725 405.032 185.976 407.093 185.735C409.153 185.493 411.127 184.765 412.85 183.61C415.24 181.98 417.21 179.48 420.05 178.92C421.014 178.769 421.999 178.812 422.947 179.045C423.894 179.279 424.786 179.699 425.57 180.28C427.138 181.447 428.446 182.929 429.41 184.63C427.19 189.03 427.82 194.27 428.51 199.15C428.529 199.699 428.729 200.227 429.08 200.65C429.468 200.898 429.929 201.004 430.387 200.952C430.844 200.899 431.269 200.69 431.59 200.36C432.651 199.313 433.381 197.978 433.69 196.52C434.683 193.286 435.023 189.887 434.69 186.52C434.34 183.139 433.009 179.934 430.86 177.3C428.046 174.103 424.104 172.118 419.86 171.76C415.62 171.449 411.39 172.481 407.77 174.71C406.048 175.673 404.591 177.047 403.53 178.71" fill="#1B1B1B"/>
<path d="M401.57 193.49C402.15 191 402.42 187.88 403 185.39C406.932 185.977 410.937 184.985 414.14 182.63C415.78 181.36 417.2 179.63 419.19 179.07C421.76 178.33 424.42 179.68 426.75 180.99L426.66 180.88C427.849 181.712 428.867 182.764 429.66 183.98C428.213 188.841 427.828 193.957 428.53 198.98C428.579 199.355 428.709 199.714 428.911 200.034C429.113 200.353 429.382 200.625 429.7 200.83C430.97 201.6 431.92 200.73 432.88 200.13C433.58 199.7 434.58 199.42 435.18 199.99C437.044 196.887 438.414 193.514 439.24 189.99C439.054 190.561 439.08 191.181 439.312 191.735C439.544 192.289 439.967 192.742 440.505 193.011C441.042 193.279 441.658 193.346 442.241 193.199C442.824 193.052 443.334 192.701 443.68 192.21C443.053 191.499 442.632 190.632 442.46 189.7C442.787 189.986 443.169 190.203 443.581 190.34C443.994 190.476 444.43 190.529 444.863 190.494C445.296 190.46 445.718 190.339 446.104 190.139C446.49 189.939 446.832 189.664 447.11 189.33L445.16 187.33L447.94 187.48C445.839 186.397 444.029 184.827 442.66 182.9C441.289 180.992 439.633 179.305 437.75 177.9C435.75 176.63 433.11 176.11 431.07 177.29C431.21 174.04 428.88 171.03 425.93 169.66C422.372 168.285 418.508 167.902 414.75 168.55C412.29 169.07 409.75 170.55 406.54 172.86C405.005 173.947 403.579 175.179 402.28 176.54C400.34 178.59 396.47 181.95 392.76 180.94L393.09 184.76C395.09 186.68 399.22 184.99 399.22 184.99C399.22 184.99 396.84 187.37 394.61 187.31L395.21 190.59C395.21 190.59 398.58 191.18 400.06 188.59L401.57 193.49Z" fill="#1B1B1B"/>
<path d="M429.44 184.59C429.44 184.59 429.15 184.1 428.54 183.3C427.691 182.161 426.641 181.188 425.44 180.43C424.576 179.99 423.663 179.654 422.72 179.43C421.666 179.098 420.539 179.07 419.47 179.35C417.21 180.03 415.56 182.35 413.14 183.77C410.898 185.218 408.289 185.995 405.62 186.01C405.026 186.014 404.432 185.987 403.84 185.93C403.597 185.873 403.343 185.873 403.1 185.93C402.858 186.034 402.621 186.151 402.39 186.28C401.61 186.844 400.962 187.571 400.49 188.41C400.056 189.009 399.504 189.512 398.867 189.889C398.231 190.265 397.524 190.507 396.79 190.6C396.398 190.637 396.002 190.637 395.61 190.6C395.474 190.596 395.339 190.572 395.21 190.53C395.21 190.48 395.78 190.53 396.76 190.38C397.453 190.258 398.114 190 398.707 189.621C399.299 189.241 399.81 188.748 400.21 188.17C400.695 187.268 401.379 186.488 402.21 185.89C402.45 185.77 402.67 185.62 402.97 185.5C403.268 185.408 403.582 185.384 403.89 185.43C404.45 185.43 405.03 185.5 405.62 185.49C408.201 185.449 410.719 184.687 412.89 183.29C414.011 182.556 415.071 181.733 416.06 180.83C417.005 179.941 418.126 179.26 419.35 178.83C420.497 178.533 421.704 178.571 422.83 178.94C423.806 179.197 424.743 179.58 425.62 180.08C426.844 180.88 427.892 181.921 428.7 183.14C428.927 183.456 429.128 183.791 429.3 184.14C429.413 184.433 429.46 184.583 429.44 184.59Z" fill="#36A503"/>
<path d="M439.15 190C439.15 190 439.15 190.19 438.98 190.51C438.791 190.976 438.528 191.408 438.2 191.79C437.943 192.1 437.613 192.342 437.239 192.494C436.866 192.646 436.461 192.703 436.06 192.66C435.807 192.615 435.567 192.515 435.358 192.366C435.149 192.217 434.975 192.024 434.85 191.8C434.599 191.321 434.505 190.775 434.58 190.24L435.04 190.37C434.885 190.705 434.641 190.991 434.334 191.195C434.027 191.4 433.669 191.516 433.3 191.53C432.967 191.55 432.633 191.501 432.32 191.386C432.006 191.271 431.72 191.091 431.48 190.86C431.033 190.45 430.69 189.939 430.48 189.37C430.205 188.438 430.067 187.471 430.07 186.5C430.039 185.635 429.928 184.774 429.74 183.93C430.199 184.696 430.431 185.577 430.41 186.47C430.453 187.401 430.621 188.323 430.91 189.21C431.091 189.701 431.386 190.143 431.77 190.5C431.966 190.684 432.197 190.827 432.45 190.92C432.703 191.012 432.971 191.053 433.24 191.04C433.517 191.032 433.786 190.948 434.018 190.798C434.251 190.649 434.438 190.438 434.56 190.19L435.39 188.11L435.02 190.31C434.919 190.71 434.975 191.133 435.175 191.494C435.376 191.854 435.707 192.125 436.1 192.25C436.438 192.292 436.781 192.253 437.101 192.136C437.421 192.02 437.708 191.829 437.94 191.58C438.272 191.23 438.564 190.845 438.81 190.43C439 190.14 439.13 190 439.15 190Z" fill="#36A503"/>
<path d="M436.89 196.75C436.385 197.101 435.772 197.261 435.16 197.2C433.681 197.147 432.277 196.536 431.23 195.49C430.224 194.459 429.426 193.243 428.88 191.91C428.598 191.392 428.403 190.831 428.3 190.25C428.656 190.716 428.954 191.223 429.19 191.76C429.81 192.996 430.612 194.133 431.57 195.13C432.55 196.089 433.819 196.697 435.18 196.86C435.752 196.87 436.324 196.834 436.89 196.75Z" fill="#36A503"/>
<path d="M436.6 197.91C436.109 198.065 435.587 198.1 435.08 198.01C433.84 197.888 432.644 197.486 431.583 196.835C430.521 196.183 429.621 195.299 428.95 194.25C428.634 193.843 428.431 193.36 428.36 192.85C428.683 193.231 428.977 193.635 429.24 194.06C429.958 194.995 430.839 195.795 431.84 196.42C432.851 197.033 433.966 197.457 435.13 197.67C435.626 197.71 436.117 197.79 436.6 197.91Z" fill="#36A503"/>
<path d="M440.58 174.89C440.062 174.86 439.547 174.79 439.04 174.68C437.82 174.535 436.584 174.609 435.39 174.9C434.196 175.202 433.065 175.713 432.05 176.41C431.653 176.744 431.232 177.049 430.79 177.32C430.79 177.32 431.09 176.77 431.79 176.13C432.795 175.316 433.965 174.732 435.22 174.42C436.471 174.108 437.776 174.078 439.04 174.33C439.591 174.388 440.12 174.58 440.58 174.89Z" fill="#36A503"/>
<path d="M432.23 169.53C432.879 170.861 433.065 172.371 432.76 173.82C432.614 175.292 431.973 176.671 430.94 177.73C431.53 176.45 431.976 175.108 432.27 173.73C432.406 172.332 432.393 170.924 432.23 169.53Z" fill="#36A503"/>
<path d="M396.3 180.72C396.682 181.04 397.119 181.287 397.59 181.45C398.94 181.692 400.33 181.532 401.59 180.99C402.41 180.71 403.3 180.36 404.27 179.99C405.29 179.624 406.271 179.159 407.2 178.6C409.2 177.47 411.2 175.84 413.67 174.73C414.881 174.173 416.181 173.834 417.51 173.73C418.765 173.653 420.018 173.912 421.14 174.48C423.25 175.57 424.74 177.1 426.34 177.73C427.575 178.306 428.987 178.37 430.27 177.91C430.712 177.688 431.114 177.394 431.46 177.04C431.46 177.04 431.41 177.16 431.25 177.38C430.997 177.671 430.692 177.912 430.35 178.09C429.695 178.366 428.991 178.508 428.28 178.508C427.569 178.508 426.865 178.366 426.21 178.09C424.5 177.45 422.96 175.93 420.94 174.91C419.884 174.395 418.712 174.164 417.54 174.24C416.268 174.358 415.026 174.696 413.87 175.24C411.46 176.31 409.46 177.92 407.42 179.06C406.47 179.618 405.464 180.077 404.42 180.43C403.42 180.78 402.56 181.12 401.72 181.38C400.401 181.905 398.954 182.017 397.57 181.7C397.198 181.568 396.858 181.36 396.57 181.09C396.462 180.981 396.371 180.856 396.3 180.72Z" fill="#36A503"/>
<path d="M431.14 177.21C430.395 176.367 429.603 175.566 428.77 174.81C426.687 173.065 424.146 171.957 421.45 171.62C419.963 171.479 418.467 171.479 416.98 171.62C415.743 171.733 414.5 171.76 413.26 171.7C412.417 171.648 411.587 171.466 410.8 171.16C410.505 171.065 410.23 170.916 409.99 170.72C411.055 171.072 412.161 171.284 413.28 171.35C414.506 171.366 415.732 171.306 416.95 171.17C418.463 170.982 419.991 170.952 421.51 171.08C424.298 171.418 426.914 172.609 429 174.49C429.622 175.055 430.182 175.685 430.67 176.37C430.874 176.62 431.033 176.905 431.14 177.21Z" fill="#36A503"/>
<path d="M412.39 207.59C412.39 207.42 413.61 207.28 414.65 206.31C415.087 205.88 415.466 205.396 415.78 204.87C416.04 204.46 416.23 204.2 416.29 204.23C416.35 204.26 416.29 204.56 416.09 205.03C415.85 205.652 415.474 206.212 414.99 206.67C414.494 207.129 413.882 207.444 413.22 207.58C412.72 207.69 412.4 207.64 412.39 207.59Z" fill="#1B1B1B"/>
<path d="M573.3 379.43L589.67 370.15C589.67 370.15 604.6 383.68 607.8 382.26L591 349.87L564.89 363.28L573.3 379.43Z" fill="#36A503"/>
<g opacity="0.6">
<path opacity="0.6" d="M583.06 360.87C582.993 360.513 583.057 360.145 583.241 359.832C583.425 359.52 583.716 359.284 584.06 359.17C584.418 359.086 584.794 359.144 585.11 359.33C585.426 359.516 585.659 359.817 585.76 360.17C585.832 360.553 585.758 360.949 585.553 361.28C585.347 361.612 585.025 361.854 584.65 361.96C584.269 362.006 583.885 361.902 583.58 361.671C583.274 361.44 583.069 361.099 583.01 360.72" fill="#E1E1E1"/>
</g>
<g opacity="0.6">
<path opacity="0.6" d="M591 349.87L588.42 351.32L605.54 381.83C605.54 381.83 606.92 382.95 607.85 382.26L591 349.87Z" fill="#E1E1E1"/>
</g>
<path d="M589.78 370.76C589.94 370.68 589.6 369.85 589.7 368.76C589.8 367.67 590.26 366.96 590.12 366.85C589.98 366.74 589.19 367.45 589.12 368.71C589.05 369.97 589.66 370.87 589.78 370.76Z" fill="#1B1B1B"/>
<path d="M593 373.43C593.17 373.43 593.08 372.56 593.47 371.68C593.86 370.8 594.47 370.27 594.4 370.11C594.33 369.95 593.4 370.32 592.9 371.43C592.4 372.54 592.8 373.5 593 373.43Z" fill="#1B1B1B"/>
<path d="M598 373.24C598 373.08 597.06 373.24 596.4 374.13C595.74 375.02 595.79 375.91 595.96 375.9C596.13 375.89 596.35 375.2 596.9 374.51C597.45 373.82 598.09 373.41 598 373.24Z" fill="#1B1B1B"/>
<path d="M585.82 372.46C585.93 372.32 585.33 371.71 584.93 370.78C584.53 369.85 584.44 369.02 584.26 369C584.08 368.98 583.87 370 584.36 371C584.85 372 585.73 372.61 585.82 372.46Z" fill="#1B1B1B"/>
<g opacity="0.3">
<path opacity="0.3" d="M576.54 377.59L579.46 375.94L571.04 360.1L568.35 361.47L576.54 377.59Z" fill="black"/>
</g>
<path d="M582.48 374.27C582.55 374.27 582.32 373.57 581.63 372.66C581.223 372.125 580.749 371.644 580.22 371.23C579.906 370.98 579.571 370.756 579.22 370.56C579.026 370.429 578.814 370.328 578.59 370.26C578.423 370.217 578.247 370.23 578.088 370.297C577.929 370.364 577.796 370.481 577.71 370.63C577.643 370.767 577.608 370.918 577.608 371.07C577.608 371.223 577.643 371.373 577.71 371.51C577.814 371.719 577.948 371.911 578.11 372.08C578.372 372.381 578.664 372.656 578.98 372.9C579.509 373.325 580.104 373.663 580.74 373.9C581.3 374.176 581.933 374.271 582.55 374.17C582.55 374.07 581.88 373.96 580.91 373.5C580.348 373.231 579.821 372.895 579.34 372.5C579.064 372.26 578.806 371.999 578.57 371.72C578.3 371.42 578.15 371.13 578.25 370.97C578.35 370.81 578.32 370.89 578.45 370.91C578.616 370.956 578.775 371.027 578.92 371.12C579.26 371.31 579.57 371.52 579.86 371.72C580.369 372.095 580.841 372.517 581.27 372.98C582 373.73 582.4 374.32 582.48 374.27Z" fill="#1B1B1B"/>
<path d="M582.6 374C581.977 373.931 581.348 374.068 580.81 374.39C580.195 374.672 579.634 375.057 579.15 375.53C578.863 375.813 578.605 376.125 578.38 376.46C578.211 376.658 578.097 376.897 578.048 377.153C577.999 377.409 578.017 377.673 578.1 377.92C578.177 378.063 578.293 378.18 578.435 378.258C578.577 378.336 578.738 378.371 578.9 378.36C579.132 378.345 579.361 378.298 579.58 378.22C580.112 378.032 580.601 377.738 581.017 377.357C581.432 376.975 581.767 376.514 582 376C582.168 375.732 582.281 375.432 582.333 375.12C582.384 374.808 582.373 374.488 582.3 374.18C582.1 374.728 581.873 375.265 581.62 375.79C581.298 376.308 580.868 376.751 580.36 377.09C580.052 377.293 579.715 377.448 579.36 377.55C578.99 377.68 578.64 377.69 578.61 377.55C578.582 377.399 578.589 377.244 578.631 377.097C578.673 376.95 578.748 376.814 578.85 376.7C579.048 376.395 579.273 376.107 579.52 375.84C579.949 375.392 580.437 375.005 580.97 374.69C581.94 374.19 582.62 374.05 582.6 374Z" fill="#1B1B1B"/>
<path d="M526.64 404.94L545.21 401.89C545.21 401.89 554.55 419.74 558.03 419.52L553.42 383.3L524.29 386.86L526.64 404.94Z" fill="#36A503"/>
<g opacity="0.6">
<path opacity="0.6" d="M542.22 390.89C542.279 390.528 542.47 390.202 542.757 389.975C543.044 389.747 543.405 389.635 543.77 389.66C544.133 389.707 544.465 389.892 544.695 390.177C544.926 390.462 545.039 390.824 545.01 391.19C544.944 391.572 544.739 391.916 544.434 392.156C544.13 392.396 543.747 392.515 543.36 392.49C542.984 392.401 542.658 392.17 542.449 391.846C542.24 391.521 542.165 391.128 542.24 390.75" fill="#E1E1E1"/>
</g>
<g opacity="0.6">
<path opacity="0.6" d="M553.42 383.3L550.5 383.77L556 418.32C556 418.32 556.91 419.84 558 419.52L553.42 383.3Z" fill="#36A503"/>
</g>
<path d="M545.1 402.5C545.28 402.5 545.25 401.58 545.7 400.64C546.15 399.7 546.85 399.14 546.76 398.98C546.67 398.82 545.68 399.22 545.14 400.37C544.6 401.52 545 402.56 545.1 402.5Z" fill="#1B1B1B"/>
<path d="M547.16 406.1C547.34 406.1 547.54 405.32 548.21 404.62C548.88 403.92 549.65 403.62 549.62 403.47C549.59 403.32 548.62 403.31 547.76 404.2C546.9 405.09 547 406.12 547.16 406.1Z" fill="#1B1B1B"/>
<path d="M552 407.68C552 407.51 551.1 407.38 550.19 407.96C549.28 408.54 549 409.41 549.19 409.47C549.38 409.53 549.8 408.95 550.55 408.47C551.3 407.99 552 407.86 552 407.68Z" fill="#1B1B1B"/>
<path d="M540.79 402.73C540.95 402.63 540.6 401.85 540.54 400.84C540.48 399.83 540.7 399.02 540.54 398.94C540.38 398.86 539.84 399.7 539.93 400.89C540.02 402.08 540.67 402.83 540.79 402.73Z" fill="#1B1B1B"/>
<g opacity="0.3">
<path opacity="0.3" d="M530.32 404.33L533.63 403.79L531.2 386.01L528.2 386.37L530.32 404.33Z" fill="black"/>
</g>
<path d="M537 403.27C537.081 402.656 536.998 402.032 536.76 401.46C536.432 400.445 535.92 399.5 535.25 398.67C535.109 398.479 534.941 398.311 534.75 398.17C534.614 398.065 534.447 398.009 534.275 398.009C534.103 398.009 533.936 398.065 533.8 398.17C533.688 398.275 533.602 398.405 533.548 398.549C533.494 398.693 533.474 398.847 533.49 399C533.521 399.23 533.581 399.455 533.67 399.67C533.814 400.045 533.992 400.407 534.2 400.75C534.559 401.322 535 401.837 535.51 402.28C535.948 402.726 536.508 403.032 537.12 403.16C537.17 403.07 536.57 402.73 535.81 401.96C535.379 401.508 535.006 401.004 534.7 400.46C534.523 400.138 534.369 399.804 534.24 399.46C534.09 399.08 534.05 398.76 534.24 398.64C534.43 398.52 534.32 398.59 534.45 398.64C534.587 398.746 534.708 398.87 534.81 399.01C535.049 399.291 535.273 399.585 535.48 399.89C535.826 400.419 536.123 400.978 536.37 401.56C536.537 402.145 536.747 402.717 537 403.27Z" fill="#1B1B1B"/>
<path d="M537.26 403C536.699 402.724 536.065 402.637 535.45 402.75C534.759 402.794 534.081 402.963 533.45 403.25C533.095 403.412 532.76 403.613 532.45 403.85C532.224 403.978 532.034 404.162 531.899 404.384C531.765 404.607 531.689 404.86 531.68 405.12C531.703 405.281 531.772 405.433 531.878 405.557C531.985 405.681 532.124 405.772 532.28 405.82C532.506 405.878 532.737 405.912 532.97 405.92C533.386 405.93 533.801 405.876 534.2 405.76C534.862 405.575 535.47 405.231 535.97 404.76C536.82 403.93 536.97 403.17 536.87 403.16C536.77 403.15 536.52 403.77 535.68 404.43C535.199 404.806 534.643 405.076 534.05 405.22C533.723 405.299 533.386 405.333 533.05 405.32C532.66 405.32 532.33 405.21 532.35 405.06C532.37 404.91 532.57 404.54 532.86 404.35C533.152 404.129 533.463 403.935 533.79 403.77C534.346 403.493 534.938 403.297 535.55 403.19C536.56 403 537.25 403.11 537.26 403Z" fill="#1B1B1B"/>
<path d="M450.41 304.75C449.83 304.98 459.2 314 460.71 320.11C462.52 327.48 467.46 335.9 467.46 335.9L502.08 369.06L567.28 359.53L578.28 379.62L499.64 400.93C497.552 401.497 495.362 401.582 493.237 401.179C491.111 400.775 489.105 399.893 487.37 398.6L436.69 360.9L407.61 324.9L450.41 304.75Z" fill="#1B1B1B"/>
<path d="M402.78 327.65L406.98 343.08C418.77 367.43 441.2 413.52 447.14 416.49C455.4 420.61 531.38 405.49 531.38 405.49L529.72 384.57L466 390.06L423.36 315.15L402.78 327.65Z" fill="#1B1B1B"/>
<path d="M573.25 381C573.25 381 573.11 381.06 572.82 381.15L571.54 381.53L566.61 383L548.44 388.21L521.44 395.87L505.51 400.38C504.12 400.76 502.75 401.18 501.32 401.54C499.867 401.881 498.382 402.062 496.89 402.08C493.832 402.103 490.81 401.418 488.06 400.08C486.686 399.405 485.388 398.583 484.19 397.63L480.65 394.89C478.323 393.05 476.047 391.216 473.82 389.39C469.4 385.73 465.17 382.15 461.23 378.63C453.31 371.63 446.43 365.08 440.83 359.39C435.23 353.7 430.95 348.85 428.15 345.39L426.33 343L425.07 341.24L424.29 340.15C424.202 340.025 424.122 339.894 424.05 339.76L424.34 340.12L425.15 341.18L426.45 342.92L428.33 345.21C431.17 348.65 435.48 353.45 441.11 359.11C446.74 364.77 453.63 371.3 461.56 378.25C465.51 381.75 469.73 385.33 474.16 388.98C476.367 390.8 478.64 392.63 480.98 394.47L484.52 397.2C485.693 398.134 486.964 398.939 488.31 399.6C490.994 400.896 493.94 401.559 496.92 401.54C498.372 401.53 499.819 401.352 501.23 401.01C502.63 400.67 504.03 400.24 505.41 399.86L521.35 395.38L548.35 387.82L566.56 382.77L571.56 381.42L572.86 381.08L573.25 381Z" fill="#36A503"/>
<path d="M424.07 328.62C424.12 328.68 423.66 328.9 423.56 329.57C423.537 329.747 423.551 329.928 423.601 330.1C423.65 330.272 423.735 330.432 423.85 330.57C424.014 330.705 424.212 330.792 424.422 330.822C424.633 330.851 424.847 330.822 425.042 330.737C425.236 330.652 425.404 330.515 425.525 330.34C425.647 330.166 425.718 329.962 425.73 329.75C425.709 329.567 425.649 329.392 425.554 329.235C425.459 329.078 425.332 328.943 425.18 328.84C424.62 328.45 424.18 328.64 424.13 328.56C424.08 328.48 424.21 328.44 424.43 328.39C424.748 328.331 425.077 328.384 425.36 328.54C425.579 328.657 425.767 328.823 425.91 329.027C426.052 329.23 426.145 329.464 426.18 329.71C426.188 330.022 426.102 330.33 425.934 330.594C425.766 330.858 425.523 331.065 425.236 331.19C424.949 331.315 424.632 331.351 424.324 331.294C424.017 331.237 423.733 331.089 423.51 330.87C423.354 330.676 423.247 330.448 423.196 330.205C423.146 329.961 423.154 329.709 423.22 329.47C423.293 329.155 423.478 328.878 423.74 328.69C423.93 328.59 424.06 328.59 424.07 328.62Z" fill="#36A503"/>
<path d="M457.28 319.59C457.28 319.59 457.11 319.84 456.71 320.21C456.137 320.714 455.525 321.172 454.88 321.58C452.726 322.935 450.275 323.745 447.738 323.94C445.202 324.135 442.656 323.709 440.32 322.7C439.625 322.4 438.956 322.042 438.32 321.63C438.074 321.488 437.848 321.313 437.65 321.11C437.7 321.03 438.65 321.7 440.47 322.38C442.776 323.275 445.254 323.64 447.72 323.45C450.186 323.259 452.578 322.518 454.72 321.28C456.35 320.34 457.22 319.53 457.28 319.59Z" fill="#36A503"/>
<path d="M516.12 264.24C516.12 264.24 470.79 247.24 468.04 244.77C465.29 242.3 453.32 228.77 448.34 227.03C448.34 227.03 440.26 224.91 434.77 225.21L428.95 225.9V221.5L405.08 221.89L404.42 227.77L400.35 229.31C400.35 229.31 390.79 249.26 390.79 258.43C390.79 267.6 386.07 320.94 395.37 331.2C396.8 332.77 402.37 331.75 402.37 331.75C402.37 331.75 429.21 328.9 455.89 310.24L446.1 299C446.1 299 442.63 275.42 446.67 258.48C446.76 258.1 446.84 257.74 446.93 257.38C458.48 263.07 476.26 271.38 481.48 271.38C481.48 271.38 510.72 281.25 516.12 274.93C516.74 274.17 516.12 264.24 516.12 264.24Z" fill="#36A503"/>
<path d="M405 228.43C405 228.43 395.65 228.8 389.56 236.37C383.47 243.94 373.56 276.23 373.56 276.23L359.92 262.23L346.92 269.45C346.92 269.45 365.31 295.07 368.92 298.03C370.938 299.379 373.19 300.342 375.56 300.87C384.29 301.63 390.19 292.74 391.98 285.41L397.98 255.28" fill="#36A503"/>
<path d="M350.86 267.21L336.86 258.9C336.86 258.9 332.63 248.9 334.25 248.44C335.87 247.98 337.25 254.01 337.25 254.01L339.25 255.01C339.25 255.01 336.52 249.93 337.47 249.45C338.42 248.97 339.75 250.45 340.47 251.62C341.03 252.5 342.84 256.19 342.84 256.19L343.78 254.89L343.04 251.48C343.04 251.48 342.04 249.2 343.15 249.18C344.26 249.16 344.26 249.08 345.09 250.97C345.92 252.86 346.49 254.26 346.49 254.26C346.49 254.26 350.57 256.69 351.44 256.42C352.093 256.199 352.784 256.113 353.472 256.166C354.159 256.219 354.829 256.411 355.44 256.73C355.44 256.73 359.31 258.73 358.38 262.88" fill="#F4D3BD"/>
<path d="M445.56 229.74C445.63 229.74 445.26 230.74 444.81 232.26C443.644 236.311 443.408 240.574 444.12 244.73C444.38 246.32 444.65 247.29 444.57 247.31C444.186 246.511 443.917 245.663 443.77 244.79C443.317 242.702 443.149 240.563 443.27 238.43C443.385 236.294 443.793 234.185 444.48 232.16C444.727 231.307 445.09 230.493 445.56 229.74Z" fill="#1B1B1B"/>
<path d="M408.09 228.49C407.664 226.245 407.756 223.933 408.36 221.73C408.476 222.857 408.476 223.993 408.36 225.12C408.391 226.25 408.3 227.38 408.09 228.49Z" fill="#1B1B1B"/>
<path d="M413.68 229.33C413.54 228.058 413.567 226.774 413.76 225.51C413.796 224.234 413.991 222.967 414.34 221.74C414.479 223.008 414.449 224.289 414.25 225.55C414.218 226.829 414.027 228.098 413.68 229.33Z" fill="#1B1B1B"/>
<path d="M421.12 229.13C420.98 229.13 421.33 227.47 421.46 225.44C421.59 223.41 421.46 221.75 421.64 221.73C422.231 224.191 422.049 226.775 421.12 229.13Z" fill="#1B1B1B"/>
<path d="M426.58 227.77C426.44 227.77 426.66 226.36 426.63 224.66C426.6 222.96 426.35 221.59 426.48 221.56C426.969 222.513 427.191 223.581 427.12 224.65C427.213 225.719 427.027 226.794 426.58 227.77Z" fill="#1B1B1B"/>
<path d="M391.28 240.65C391.41 240.65 391.28 253.71 390.98 269.81C390.68 285.91 390.32 298.97 390.18 298.96C390.04 298.95 390.18 285.96 390.49 269.8C390.8 253.64 391.14 240.65 391.28 240.65Z" fill="#1B1B1B"/>
<path d="M390.38 271.34C389.677 271.044 389.006 270.676 388.38 270.24C386.872 269.269 385.271 268.452 383.6 267.8C381.937 267.167 380.155 266.908 378.38 267.04C377.02 267.16 376.22 267.51 376.19 267.43C376.835 267.01 377.573 266.755 378.34 266.69C380.176 266.446 382.044 266.67 383.77 267.34C385.476 267.998 387.09 268.875 388.57 269.95C389.227 270.34 389.834 270.806 390.38 271.34Z" fill="black"/>
<path d="M445 262.19C444.854 262.308 444.696 262.412 444.53 262.5L443.15 263.31C442.55 263.66 441.8 264.07 440.91 264.5C440.02 264.93 439.03 265.5 437.91 265.94C436.79 266.38 435.52 266.99 434.14 267.49C432.76 267.99 431.29 268.49 429.73 269.01C422.901 271.124 415.799 272.229 408.65 272.29C407 272.29 405.44 272.29 403.98 272.18C402.52 272.07 401.16 271.99 399.92 271.85C398.68 271.71 397.58 271.54 396.6 271.4C395.62 271.26 394.79 271.1 394.11 270.94L392.55 270.6C392.365 270.568 392.184 270.518 392.01 270.45C392.198 270.442 392.386 270.459 392.57 270.5L394.15 270.76C394.83 270.88 395.66 271.02 396.64 271.13C397.62 271.24 398.72 271.43 399.96 271.51C401.2 271.59 402.54 271.74 403.96 271.78C405.38 271.82 406.96 271.84 408.6 271.84C412.146 271.761 415.683 271.457 419.19 270.93C422.691 270.359 426.154 269.574 429.56 268.58C431.12 268.08 432.61 267.63 433.96 267.1C435.31 266.57 436.59 266.1 437.73 265.62C438.87 265.14 439.88 264.62 440.73 264.25C441.58 263.88 442.38 263.46 443 263.14L444.42 262.42C444.605 262.325 444.8 262.248 445 262.19Z" fill="black"/>
<path d="M471.35 247.71C471.35 247.78 470.55 248.35 469.35 249.41C467.744 250.794 466.313 252.369 465.09 254.1C463.871 255.841 462.863 257.721 462.09 259.7C461.51 261.22 461.26 262.21 461.18 262.19C461.168 261.947 461.195 261.704 461.26 261.47C461.388 260.83 461.555 260.199 461.76 259.58C462.438 257.528 463.416 255.587 464.66 253.82C465.905 252.052 467.4 250.476 469.1 249.14C469.613 248.737 470.151 248.366 470.71 248.03C470.907 247.893 471.122 247.785 471.35 247.71Z" fill="black"/>
<path d="M476.42 249.28C476.42 249.36 475.42 249.81 473.95 250.79C472.015 252.064 470.288 253.629 468.83 255.43C467.388 257.24 466.238 259.265 465.42 261.43C464.79 263.1 464.57 264.19 464.49 264.17C464.41 264.15 464.49 263.89 464.56 263.39C464.686 262.684 464.863 261.989 465.09 261.31C466.591 256.778 469.667 252.936 473.76 250.48C474.371 250.1 475.01 249.766 475.67 249.48C475.908 249.375 476.161 249.308 476.42 249.28Z" fill="black"/>
<path d="M445.4 258.09C445.238 258.186 445.067 258.266 444.89 258.33L443.42 258.93C442.78 259.19 441.99 259.5 441.06 259.81C440.13 260.12 439.06 260.52 437.89 260.88C435.53 261.64 432.68 262.41 429.49 263.14C426.3 263.87 422.74 264.47 418.99 264.92C415.24 265.37 411.63 265.54 408.36 265.59C405.09 265.64 402.13 265.52 399.67 265.32C398.43 265.25 397.32 265.11 396.34 265.01C395.36 264.91 394.52 264.8 393.84 264.69L392.26 264.45L391.72 264.33C391.906 264.305 392.094 264.305 392.28 264.33L393.86 264.48C394.55 264.56 395.39 264.65 396.37 264.72C397.35 264.79 398.45 264.91 399.69 264.95C402.15 265.11 405.09 265.17 408.35 265.12C411.61 265.07 415.19 264.83 418.93 264.41C422.67 263.99 426.2 263.34 429.39 262.67C432.58 262 435.39 261.24 437.79 260.52C438.98 260.19 440.03 259.83 440.97 259.52C441.91 259.21 442.7 258.95 443.35 258.72L444.86 258.21C445.032 258.141 445.215 258.101 445.4 258.09Z" fill="black"/>
<path d="M390.88 263.76C389.188 262.648 387.405 261.682 385.55 260.87C383.637 260.207 381.67 259.715 379.67 259.4C380.268 259.291 380.882 259.291 381.48 259.4C382.934 259.545 384.363 259.881 385.73 260.4C387.092 260.929 388.377 261.638 389.55 262.51C390.068 262.839 390.519 263.263 390.88 263.76Z" fill="black"/>
<path d="M531 260.48L521.1 263.79L516.1 264.24V274.9L521.24 276.65L535.03 275.9C535.03 275.9 542.93 279.9 544.94 279.66C546.95 279.42 546.94 278.8 546.94 278.8L537.16 272.89C538.433 272.614 539.763 272.791 540.92 273.39C543.17 274.39 547.06 276.65 548.44 276.02C549.82 275.39 549.57 274.9 549.57 274.9L542 270.07C542 270.07 548.56 273.01 549.67 272.51C549.982 272.388 550.258 272.189 550.473 271.932C550.688 271.675 550.834 271.368 550.9 271.04L546.64 267.25L540.24 262.25L531 260.48Z" fill="#F4D3BD"/>
<path d="M525.54 264.87C525.915 264.977 526.277 265.124 526.62 265.31C527.29 265.63 528.26 266.1 529.45 266.7C530.64 267.3 532.05 268.01 533.6 268.88C534.024 269.101 534.401 269.404 534.71 269.77C535.042 270.171 535.247 270.662 535.3 271.18C535.364 271.723 535.244 272.272 534.96 272.74C534.62 273.191 534.131 273.506 533.58 273.63C532.861 273.805 532.11 273.805 531.39 273.63C530.739 273.441 530.101 273.21 529.48 272.94C528.28 272.44 527.18 271.94 526.18 271.41L526.44 271.35C525.837 272.141 525.047 272.77 524.14 273.18C523.44 273.481 522.682 273.625 521.92 273.6C521.438 273.585 520.96 273.504 520.5 273.36C520.19 273.26 520.03 273.17 520.04 273.15C520.663 273.272 521.295 273.342 521.93 273.36C522.646 273.337 523.35 273.171 524 272.87C524.836 272.459 525.56 271.851 526.11 271.1L526.21 270.96L526.36 271.04C527.36 271.51 528.47 272.04 529.66 272.5C530.261 272.759 530.879 272.977 531.51 273.15C532.147 273.304 532.813 273.304 533.45 273.15C533.89 273.065 534.283 272.819 534.55 272.46C534.772 272.087 534.867 271.651 534.82 271.22C534.768 270.789 534.607 270.379 534.351 270.029C534.096 269.679 533.754 269.4 533.36 269.22C531.86 268.34 530.45 267.59 529.29 266.95L526.53 265.43C526.181 265.279 525.849 265.091 525.54 264.87Z" fill="#EAAE94"/>
<path d="M542.42 270.1C540.844 269.4 539.37 268.488 538.04 267.39C537.728 267.148 537.431 266.888 537.15 266.61H537.45C536.584 267.085 535.617 267.345 534.63 267.37C533.91 267.37 533.48 267.37 533.49 267.26C533.853 267.161 534.225 267.097 534.6 267.07C535.505 266.947 536.379 266.659 537.18 266.22L537.35 266.11L537.49 266.24C537.74 266.49 538.04 266.73 538.34 266.98C539.754 267.947 541.116 268.989 542.42 270.1Z" fill="#EAAE94"/>
<path d="M559.31 346.74C557.312 346.745 555.325 346.459 553.41 345.89C534.41 340.2 535.41 326.49 536.18 315.47C536.93 305.2 536.95 298.74 528.48 295.56C517.27 291.36 512.66 295.44 505.67 301.62C497.35 308.97 487.01 318.13 461.91 314.42C448.91 312.49 427.91 305.61 402.2 283.84C393.032 276.128 384.556 267.629 376.87 258.44L380.75 255.32C381.14 255.8 419.53 303.11 462.64 309.49C485.44 312.87 494.43 304.91 502.37 297.88C509.49 291.59 516.21 285.64 530.23 290.88C542.61 295.52 541.84 306.3 541.15 315.81C540.35 326.94 539.66 336.55 554.84 341.09C571.94 346.22 594.43 319.09 607.84 302.94C612.64 297.16 615.97 292.94 618.63 290.82L622.39 293.82C620.73 295.82 616.11 300.82 611.68 306.13C598 322.63 578 346.74 559.31 346.74Z" fill="#E1E1E1"/>
<path d="M488.82 307.32C488.82 307.32 488.62 307.5 488.22 307.76C487.659 308.131 487.075 308.465 486.47 308.76C484.472 309.739 482.359 310.461 480.18 310.91C478.004 311.362 475.779 311.534 473.56 311.42C472.89 311.387 472.223 311.32 471.56 311.22C471.1 311.14 470.84 311.08 470.84 311.04C470.84 311 471.9 311.04 473.58 311.04C477.968 311.062 482.312 310.162 486.33 308.4C487.86 307.76 488.78 307.25 488.82 307.32Z" fill="#E1E1E1"/>
<path d="M518.06 292.28C517.516 292.294 516.972 292.273 516.43 292.22C515.135 292.204 513.846 292.411 512.62 292.83C511.393 293.251 510.249 293.884 509.24 294.7C508.846 295.076 508.429 295.427 507.99 295.75C507.94 295.75 508.27 295.16 508.99 294.44C509.978 293.508 511.155 292.799 512.44 292.36C513.724 291.917 515.087 291.75 516.44 291.87C517.005 291.875 517.56 292.016 518.06 292.28Z" fill="#E1E1E1"/>
<path d="M549.91 339.51C549.128 339.417 548.369 339.183 547.67 338.82C545.929 338.025 544.365 336.889 543.07 335.48C541.76 334.081 540.741 332.436 540.07 330.64C539.764 329.91 539.592 329.131 539.56 328.34C539.64 328.34 539.84 329.2 540.4 330.51C541.132 332.214 542.146 333.783 543.4 335.15C544.661 336.51 546.146 337.643 547.79 338.5C549.08 339.16 549.94 339.43 549.91 339.51Z" fill="#E1E1E1"/>
<path d="M619.54 292.64C618.409 294.117 617.151 295.492 615.78 296.75C614.523 298.121 613.144 299.376 611.66 300.5C612.798 299.028 614.059 297.656 615.43 296.4C616.687 295.028 618.062 293.77 619.54 292.64Z" fill="#E1E1E1"/>
<path d="M381.28 259.54C380.255 260.668 378.823 261.343 377.301 261.416C375.778 261.489 374.289 260.954 373.16 259.93L364.39 251.93L372.12 243.43L380.89 251.43C382.015 252.455 382.688 253.884 382.761 255.404C382.834 256.924 382.302 258.412 381.28 259.54Z" fill="#E1E1E1"/>
<path d="M381.28 259.54C381.574 259.108 381.845 258.661 382.09 258.2C382.708 256.891 382.805 255.397 382.36 254.02C382.059 253.073 381.51 252.223 380.77 251.56C379.94 250.82 379.06 250.02 378.12 249.19L372 243.62H372.34L368.47 247.87L364.6 252.13V251.79L370.72 257.4L373.34 259.8C374.072 260.474 374.969 260.943 375.94 261.16C377.352 261.464 378.827 261.225 380.07 260.49C380.93 259.96 381.3 259.49 381.33 259.55C381.01 259.979 380.613 260.345 380.16 260.63C378.897 261.456 377.36 261.754 375.88 261.46C374.843 261.257 373.88 260.781 373.09 260.08L370.44 257.7L364.27 252.14L364.1 251.98L364.26 251.8L368.12 247.54L371.99 243.29L372.15 243.12L372.33 243.28L378.45 248.89L381.07 251.29C381.841 252.013 382.406 252.927 382.71 253.94C383.151 255.385 383 256.946 382.29 258.28C382.038 258.761 381.695 259.189 381.28 259.54Z" fill="#1B1B1B"/>
<path d="M336.92 211.5L321.78 199C321.498 198.766 321.264 198.479 321.092 198.155C320.921 197.831 320.815 197.476 320.781 197.111C320.746 196.747 320.784 196.378 320.892 196.028C321 195.678 321.176 195.352 321.41 195.07C321.644 194.787 321.931 194.554 322.255 194.382C322.579 194.211 322.933 194.105 323.298 194.07C323.663 194.036 324.031 194.074 324.382 194.182C324.732 194.29 325.058 194.466 325.34 194.7L340.48 207.22L336.92 211.5Z" fill="#E1E1E1"/>
<path d="M322.69 229.78L307.56 217.27C307.277 217.037 307.042 216.75 306.87 216.427C306.697 216.103 306.591 215.749 306.555 215.384C306.52 215.019 306.557 214.65 306.664 214.3C306.771 213.949 306.947 213.623 307.18 213.34C307.413 213.057 307.699 212.822 308.023 212.65C308.347 212.477 308.701 212.371 309.066 212.335C309.431 212.3 309.8 212.337 310.15 212.444C310.501 212.551 310.827 212.727 311.11 212.96L326.25 225.48L322.69 229.78Z" fill="#E1E1E1"/>
<g opacity="0.6">
<path opacity="0.6" d="M336.92 211.5L321.78 199C321.498 198.766 321.264 198.479 321.092 198.155C320.921 197.831 320.815 197.476 320.781 197.111C320.746 196.747 320.784 196.378 320.892 196.028C321 195.678 321.176 195.352 321.41 195.07C321.644 194.787 321.931 194.554 322.255 194.382C322.579 194.211 322.933 194.105 323.298 194.07C323.663 194.036 324.031 194.074 324.382 194.182C324.732 194.29 325.058 194.466 325.34 194.7L340.48 207.22L336.92 211.5Z" fill="#E1E1E1"/>
</g>
<g opacity="0.6">
<path opacity="0.6" d="M322.69 229.78L307.56 217.27C307.277 217.037 307.042 216.75 306.87 216.427C306.697 216.103 306.591 215.749 306.555 215.384C306.52 215.019 306.557 214.65 306.664 214.3C306.771 213.949 306.947 213.623 307.18 213.34C307.413 213.057 307.699 212.822 308.023 212.65C308.347 212.477 308.701 212.371 309.066 212.335C309.431 212.3 309.8 212.337 310.15 212.444C310.501 212.551 310.827 212.727 311.11 212.96L326.25 225.48L322.69 229.78Z" fill="#E1E1E1"/>
</g>
<path d="M336.92 211.5C336.986 211.383 337.063 211.273 337.15 211.17L337.83 210.29L340.36 207.1V207.31L333.25 201.52L328.8 197.87L326.41 195.87L325.18 194.87C324.8 194.555 324.339 194.354 323.85 194.29C323.44 194.24 323.023 194.291 322.637 194.438C322.25 194.585 321.906 194.824 321.632 195.134C321.358 195.444 321.164 195.816 321.066 196.218C320.968 196.619 320.97 197.039 321.07 197.44C321.166 197.812 321.351 198.156 321.61 198.44C321.892 198.733 322.197 199.003 322.52 199.25L324.4 200.82L330.88 206.27L335.27 210.01L336.47 211.01C336.623 211.133 336.767 211.266 336.9 211.41C336.754 211.319 336.613 211.219 336.48 211.11C336.16 210.86 335.76 210.55 335.28 210.16C334.17 209.27 332.65 208.06 330.81 206.57L324.15 201.16L322.23 199.59C321.875 199.322 321.54 199.028 321.23 198.71C320.916 198.359 320.692 197.937 320.58 197.48C320.396 196.852 320.423 196.181 320.656 195.569C320.889 194.958 321.315 194.439 321.87 194.093C322.425 193.746 323.078 193.59 323.73 193.649C324.382 193.709 324.996 193.979 325.48 194.42L326.7 195.42L329.08 197.42C330.64 198.713 332.117 199.943 333.51 201.11L340.51 207L340.63 207.1L340.53 207.21L337.82 210.36L337.1 211.17C337.052 211.286 336.992 211.397 336.92 211.5Z" fill="#1B1B1B"/>
<path d="M322.69 229.78C322.764 229.665 322.844 229.555 322.93 229.45L323.61 228.58L326.14 225.39V225.6L319.03 219.81L314.58 216.15L312.19 214.15L310.96 213.15C310.577 212.833 310.113 212.632 309.62 212.57C309.204 212.52 308.782 212.574 308.392 212.726C308.001 212.877 307.654 213.123 307.38 213.44C307.115 213.747 306.928 214.114 306.836 214.509C306.743 214.905 306.748 215.317 306.85 215.71C306.938 216.098 307.12 216.458 307.38 216.76C307.669 217.05 307.976 217.32 308.3 217.57L310.17 219.13L316.66 224.59L321.05 228.33L322.25 229.33C322.399 229.449 322.54 229.58 322.67 229.72C322.523 229.638 322.386 229.541 322.26 229.43L321.05 228.43L316.6 225L310 219.54L308 218C307.647 217.733 307.313 217.442 307 217.13C306.689 216.775 306.469 216.349 306.36 215.89C306.238 215.421 306.232 214.929 306.342 214.457C306.452 213.985 306.674 213.547 306.99 213.18C307.245 212.874 307.558 212.623 307.911 212.44C308.264 212.257 308.65 212.146 309.047 212.113C309.443 212.081 309.842 212.127 310.22 212.25C310.599 212.373 310.949 212.57 311.25 212.83L312.48 213.83L314.86 215.83L319.29 219.52L326.29 225.42L326.4 225.52L326.31 225.63L323.59 228.78L322.88 229.59C322.78 229.71 322.7 229.8 322.69 229.78Z" fill="#1B1B1B"/>
<path d="M371.32 227.33L371.72 226.84C372.555 225.821 372.984 224.529 372.926 223.213C372.867 221.897 372.325 220.649 371.404 219.708C370.482 218.766 369.246 218.198 367.931 218.112C366.617 218.025 365.317 218.427 364.28 219.24L342.12 200.78L316.77 231.11L339.45 249.11C338.747 250.209 338.47 251.527 338.67 252.816C338.871 254.105 339.536 255.277 340.54 256.11C341.616 256.996 342.996 257.428 344.386 257.312C345.776 257.196 347.065 256.542 347.98 255.49C351.182 257.902 355.198 258.973 359.176 258.475C363.154 257.976 366.782 255.948 369.29 252.82L372.93 248.27C375.359 245.223 376.543 241.368 376.245 237.483C375.946 233.598 374.186 229.97 371.32 227.33Z" fill="#E1E1E1"/>
<path d="M371.32 227.33C371.387 227.382 371.451 227.439 371.51 227.5L372.04 228.01C372.336 228.278 372.607 228.573 372.85 228.89C373 229.08 373.17 229.27 373.34 229.49L373.85 230.22C374.712 231.501 375.37 232.907 375.8 234.39C376.466 236.635 376.611 239.003 376.224 241.312C375.838 243.622 374.93 245.814 373.57 247.72C372.76 248.87 371.82 249.96 370.9 251.15C369.97 252.405 368.944 253.585 367.83 254.68C365.294 257.052 362.031 258.497 358.57 258.78C354.739 259.108 350.921 258.019 347.84 255.72H348.15C347.212 256.784 345.91 257.458 344.5 257.61C343.766 257.685 343.025 257.613 342.319 257.399C341.613 257.184 340.958 256.831 340.39 256.36C339.339 255.489 338.643 254.264 338.433 252.916C338.223 251.568 338.514 250.189 339.25 249.04L339.3 249.36L321.75 235.36L316.62 231.28L316.42 231.13L316.58 230.93L342 200.64L342.14 200.48L342.3 200.62L364.41 219.13H364.24C365.231 218.353 366.461 217.943 367.72 217.97C368.829 217.976 369.908 218.326 370.81 218.97C371.515 219.481 372.087 220.154 372.478 220.931C372.87 221.709 373.069 222.569 373.06 223.44C373.04 224.519 372.691 225.565 372.06 226.44C371.9 226.66 371.726 226.871 371.54 227.07L371.35 227.28C371.35 227.28 371.59 226.98 372 226.39C372.593 225.502 372.907 224.457 372.9 223.39C372.897 222.549 372.693 221.721 372.305 220.975C371.917 220.229 371.357 219.586 370.67 219.1C369.747 218.447 368.637 218.11 367.507 218.141C366.376 218.171 365.286 218.568 364.4 219.27L364.31 219.34L364.22 219.27L342 200.94H342.3L317 231.27V230.92L322.12 234.99L339.67 248.99L339.84 249.12L339.72 249.3C339.041 250.348 338.768 251.609 338.952 252.844C339.137 254.079 339.765 255.205 340.72 256.01C341.752 256.857 343.074 257.269 344.405 257.159C345.735 257.049 346.971 256.425 347.85 255.42L347.99 255.27L348.15 255.39C351.001 257.524 354.509 258.593 358.066 258.411C361.622 258.228 365.003 256.805 367.62 254.39C368.708 253.309 369.711 252.145 370.62 250.91C371.55 249.73 372.51 248.63 373.31 247.51C374.653 245.643 375.556 243.497 375.952 241.232C376.349 238.967 376.228 236.642 375.6 234.43C375.197 232.958 374.566 231.558 373.73 230.28C373.56 230.02 373.4 229.77 373.24 229.54L372.76 228.94C372.53 228.608 372.276 228.294 372 228L371.49 227.47C371.37 227.377 371.313 227.33 371.32 227.33Z" fill="#1B1B1B"/>
<path d="M345.961 227.939L330.325 215.008L327.795 218.068L343.431 230.998L345.961 227.939Z" fill="#494444"/>
<path d="M371.32 227.33C371.074 227.746 370.793 228.141 370.48 228.51C369.92 229.26 369.09 230.32 368.05 231.62C365.98 234.23 363.05 237.78 359.78 241.62L351.39 251.62C350.39 252.83 349.51 253.85 348.85 254.62C348.55 255.003 348.215 255.358 347.85 255.68C348.097 255.261 348.378 254.863 348.69 254.49C349.25 253.75 350.08 252.69 351.12 251.39C353.19 248.78 356.12 245.23 359.39 241.34C362.66 237.45 365.57 234 367.78 231.39L370.33 228.39C370.622 228.003 370.954 227.648 371.32 227.33Z" fill="#1B1B1B"/>
<path d="M364.28 219.24C364.018 219.68 363.717 220.095 363.38 220.48C362.77 221.26 361.87 222.38 360.76 223.75C358.52 226.49 355.38 230.23 351.88 234.33L342.88 244.81L340.15 248C339.828 248.401 339.473 248.776 339.09 249.12C339.362 248.685 339.667 248.27 340 247.88C340.61 247.1 341.5 245.98 342.62 244.61C344.86 241.87 348 238.13 351.5 234.03L360.5 223.54L363.24 220.38C363.557 219.974 363.904 219.592 364.28 219.24Z" fill="#1B1B1B"/>
<path d="M126.46 296.3C122.115 296.301 117.783 295.829 113.54 294.89C104.71 292.96 97.8 290.11 92.49 286.2C85.8967 288.505 78.9826 289.76 72 289.92C49.32 290.53 28.79 283.44 3.62 263.06C2.38 260.354 1.17333 257.49 0 254.47C24.23 274.08 50.46 285.47 71.91 284.94C77.4019 284.806 82.8522 283.949 88.12 282.39C82.27 276.29 79.32 268.32 79.36 258.64C79.36 248.03 83.92 243.22 87.7 241.05C93.05 237.99 100.37 238.41 106.79 242.15C113.87 246.28 118.08 253.26 118.05 260.83C118.001 263.935 117.248 266.987 115.848 269.759C114.449 272.53 112.439 274.948 109.97 276.83C106.29 279.662 102.301 282.067 98.08 284C110.142 290.62 124.134 292.83 137.65 290.25C158.96 286.02 176.76 278.46 190.55 267.78C201.347 259.483 210.016 248.738 215.844 236.432C221.673 224.126 224.492 210.61 224.07 197V196.91C222.84 172.27 208.45 148.19 187.39 135.57C169.13 124.57 145.73 121.57 121.51 127.12C106.46 130.54 85.98 138.65 73.91 157.88C60.91 178.59 64.43 204.31 75.16 216.26C82.81 224.78 97.47 221.71 109.26 219.26L113.14 218.46C125.81 215.94 177.22 191.83 177.42 191.76L178.51 195.86C177.68 196.15 127.13 220.76 114.11 223.35C112.87 223.59 111.59 223.86 110.28 224.14C97.28 226.87 81.02 230.27 71.45 219.6C64.53 211.89 60.68 200.75 60.61 188.24C60.5334 176.613 63.6761 165.192 69.69 155.24C82.69 134.57 104.44 125.9 120.41 122.24C145.88 116.46 170.58 119.66 189.96 131.24C212.38 144.69 227.72 170.33 229.04 196.57C229.15 197.92 230.49 217.03 220.26 238.67C214.122 251.633 204.983 262.945 193.6 271.67C179.19 282.83 160.7 290.67 138.6 295.09C134.602 295.886 130.536 296.292 126.46 296.3ZM95.75 244C93.8007 243.97 91.8772 244.449 90.17 245.39C86.38 247.56 84.37 252.15 84.34 258.67C84.34 267.99 87.23 275.21 93.34 280.57C98.192 278.638 102.755 276.047 106.9 272.87C108.767 271.455 110.29 269.636 111.355 267.55C112.42 265.463 113 263.162 113.05 260.82C113.05 255.05 109.79 249.68 104.26 246.47C101.69 244.913 98.7544 244.062 95.75 244Z" fill="#E1E1E1"/>
<path d="M96.52 288.79C95.8449 288.599 95.2086 288.291 94.64 287.88C93.2348 286.979 91.8979 285.977 90.64 284.88C89.3453 283.811 88.1381 282.641 87.03 281.38C86.5313 280.885 86.1339 280.297 85.86 279.65C85.92 279.65 86.39 280.24 87.29 281.15C88.19 282.06 89.47 283.25 90.95 284.5C92.43 285.75 93.84 286.83 94.88 287.56C95.451 287.936 95.9987 288.347 96.52 288.79Z" fill="#263238"/>
<path d="M101.75 285.87C100.97 285.827 100.206 285.633 99.5 285.3C97.7646 284.586 96.1465 283.615 94.7 282.42C93.24 281.249 91.9271 279.906 90.79 278.42C90.2772 277.824 89.8651 277.149 89.57 276.42C89.63 276.42 90.13 277.1 91.06 278.16C92.2524 279.558 93.5713 280.844 95 282C96.4197 283.184 97.9777 284.191 99.64 285C100.91 285.57 101.77 285.79 101.75 285.87Z" fill="#263238"/>
<path d="M81.79 268.64C81.6377 268.39 81.5294 268.116 81.47 267.83C81.2368 267.074 81.0432 266.306 80.89 265.53C80.3895 262.966 80.2281 260.347 80.41 257.74C80.5981 255.131 81.1328 252.558 82 250.09C82.2532 249.343 82.5504 248.612 82.89 247.9C82.9939 247.628 83.1353 247.373 83.31 247.14C83.39 247.14 82.9 248.31 82.31 250.2C80.792 255.142 80.426 260.365 81.24 265.47C81.55 267.43 81.87 268.62 81.79 268.64Z" fill="#E1E1E1"/>
<path d="M69.34 286.54C68.5606 286.794 67.7492 286.935 66.93 286.96C62.9851 287.291 59.0165 286.727 55.32 285.31C54.5414 285.055 53.8012 284.695 53.12 284.24C53.9084 284.437 54.6833 284.684 55.44 284.98C59.1379 286.193 63.0206 286.745 66.91 286.61C67.7175 286.532 68.5293 286.508 69.34 286.54Z" fill="#E1E1E1"/>
<path d="M207.21 253.4C206.804 254.178 206.315 254.909 205.75 255.58C204.466 257.257 203.083 258.856 201.61 260.37C200.137 261.883 198.574 263.305 196.93 264.63C196.273 265.209 195.556 265.715 194.79 266.14C195.382 265.497 196.024 264.902 196.71 264.36C197.91 263.29 199.54 261.78 201.26 260.02C202.98 258.26 204.44 256.59 205.48 255.36C206.005 254.663 206.584 254.008 207.21 253.4Z" fill="#E1E1E1"/>
<path d="M64.58 202.45C64.362 202.03 64.1909 201.588 64.07 201.13C63.6684 199.906 63.3346 198.661 63.07 197.4C62.6258 195.531 62.2919 193.638 62.07 191.73C61.551 187.069 61.6755 182.358 62.44 177.73C62.7563 175.84 63.1838 173.97 63.72 172.13C64.073 170.886 64.4903 169.661 64.97 168.46C65.1176 168.008 65.312 167.572 65.55 167.16C65.4526 167.623 65.3189 168.078 65.15 168.52C64.85 169.38 64.47 170.65 64.06 172.22C63.5715 174.058 63.1809 175.921 62.89 177.8C62.5487 180.12 62.3384 182.457 62.26 184.8C62.2126 187.137 62.3027 189.474 62.53 191.8C62.7249 193.69 63.0153 195.569 63.4 197.43C63.73 199.03 64.04 200.31 64.29 201.18C64.4187 201.596 64.5157 202.02 64.58 202.45Z" fill="#E1E1E1"/>
<path d="M70.62 157.57C70.3701 158.522 69.961 159.425 69.41 160.24C68.9982 161.136 68.4407 161.957 67.76 162.67C68.0205 161.717 68.4397 160.814 69 160C69.4054 159.108 69.9524 158.288 70.62 157.57Z" fill="#E1E1E1"/>
<path d="M174.55 118.46C174.81 118.36 175.4 119.28 176.31 120.19C177.22 121.1 178.12 121.73 178.01 121.99C177.9 122.25 176.67 121.99 175.61 120.88C174.55 119.77 174.3 118.54 174.55 118.46Z" fill="#263238"/>
<path d="M248.36 198.65L239.47 153C239.296 152.109 238.776 151.323 238.023 150.816C237.27 150.309 236.346 150.121 235.455 150.295C234.564 150.469 233.778 150.99 233.271 151.742C232.764 152.495 232.576 153.419 232.75 154.31L233.15 156.39L214.76 160.91C212.811 161.388 211.01 162.336 209.512 163.672C208.015 165.007 206.867 166.689 206.17 168.57L195.08 171.3C193.236 171.757 191.648 172.926 190.664 174.551C189.68 176.176 189.38 178.124 189.83 179.97L190.83 184.02L180 186.64C178.552 186.996 177.304 187.912 176.532 189.187C175.759 190.462 175.525 191.992 175.88 193.44C176.235 194.888 177.151 196.136 178.427 196.909C179.702 197.681 181.232 197.916 182.68 197.56L193.54 194.88L194.31 198.02C194.534 198.934 194.936 199.796 195.493 200.554C196.05 201.313 196.751 201.954 197.557 202.441C198.362 202.927 199.256 203.25 200.187 203.391C201.117 203.532 202.067 203.487 202.98 203.26L214.27 200.49V200.4C215.751 201.666 217.512 202.56 219.407 203.011C221.303 203.461 223.278 203.454 225.17 202.99L241.48 198.99L241.67 199.99C241.873 200.852 242.402 201.603 243.145 202.084C243.889 202.565 244.79 202.74 245.659 202.572C246.529 202.404 247.3 201.906 247.811 201.183C248.322 200.459 248.533 199.566 248.4 198.69L248.36 198.65Z" fill="#E1E1E1"/>
<path d="M248.36 198.65C248.43 198.901 248.46 199.161 248.45 199.42C248.437 200.195 248.162 200.942 247.67 201.54C247.265 202.024 246.738 202.391 246.144 202.602C245.549 202.813 244.909 202.861 244.29 202.74C243.673 202.618 243.1 202.331 242.632 201.911C242.164 201.49 241.818 200.951 241.63 200.35C241.5 199.9 241.44 199.46 241.34 198.99L241.47 199.08L229.47 202.08L225.88 202.97C224.611 203.344 223.293 203.529 221.97 203.52C219.075 203.465 216.289 202.404 214.09 200.52L214.39 200.33V200.41V200.6H214.21C210.39 201.52 206.4 202.6 202.11 203.6C200.966 203.747 199.803 203.624 198.715 203.243C197.626 202.861 196.642 202.23 195.84 201.4C195.017 200.557 194.41 199.528 194.07 198.4C193.76 197.26 193.5 196.12 193.21 194.97L193.48 195.13L184.33 197.39C183.54 197.57 182.79 197.81 181.94 197.94C180.857 198.072 179.758 197.899 178.768 197.44C177.778 196.982 176.936 196.256 176.336 195.344C175.736 194.433 175.403 193.372 175.374 192.281C175.344 191.19 175.62 190.113 176.17 189.17C176.632 188.405 177.255 187.751 177.996 187.252C178.737 186.752 179.578 186.421 180.46 186.28L190.68 183.76L190.5 184.06C190.3 183.23 190.09 182.37 189.87 181.49C189.611 180.601 189.427 179.691 189.32 178.77C189.183 176.865 189.789 174.98 191.01 173.51C191.607 172.788 192.337 172.188 193.16 171.74C193.98 171.32 194.855 171.017 195.76 170.84L206.02 168.32L205.86 168.47C206.839 165.853 208.657 163.634 211.03 162.16C212.189 161.456 213.451 160.937 214.77 160.62L218.57 159.69L233.01 156.16L232.85 156.41C232.74 155.86 232.64 155.32 232.53 154.78C232.387 154.229 232.35 153.656 232.42 153.09C232.505 152.53 232.721 151.998 233.049 151.536C233.376 151.074 233.808 150.695 234.308 150.43C234.809 150.165 235.365 150.02 235.931 150.008C236.497 149.996 237.059 150.117 237.57 150.36C238.069 150.588 238.508 150.928 238.855 151.352C239.202 151.777 239.447 152.276 239.57 152.81L241.76 164.12C243.12 171.22 244.31 177.42 245.29 182.55C246.27 187.68 247.02 191.68 247.55 194.45C247.8 195.81 247.99 196.86 248.12 197.59C248.18 197.94 248.23 198.2 248.26 198.4C248.27 198.493 248.27 198.587 248.26 198.68C248.227 198.593 248.203 198.503 248.19 198.41C248.19 198.21 248.09 197.95 248.02 197.6C247.87 196.88 247.65 195.83 247.37 194.47C246.82 191.71 246.02 187.69 245 182.59C243.98 177.49 242.77 171.28 241.37 164.18C240.67 160.64 239.93 156.87 239.14 152.9C238.97 152.173 238.553 151.528 237.959 151.076C237.365 150.624 236.632 150.393 235.887 150.422C235.141 150.452 234.429 150.74 233.873 151.238C233.317 151.736 232.951 152.412 232.84 153.15C232.77 153.668 232.804 154.195 232.94 154.7C233.05 155.24 233.16 155.78 233.26 156.32V156.53L233.06 156.58L218.63 160.14C216.14 160.83 213.46 161.14 211.23 162.56C208.937 163.978 207.178 166.116 206.23 168.64L206.18 168.76H206.06L196 171.29C195.136 171.449 194.3 171.736 193.52 172.14C192.754 172.557 192.075 173.117 191.52 173.79C190.377 175.16 189.81 176.921 189.94 178.7C190.044 179.597 190.224 180.484 190.48 181.35C190.69 182.22 190.91 183.08 191.11 183.91L191.17 184.15L190.93 184.21L180.71 186.72C179.889 186.842 179.104 187.143 178.413 187.603C177.721 188.063 177.14 188.67 176.71 189.38C176.207 190.246 175.956 191.234 175.983 192.234C176.01 193.235 176.316 194.208 176.865 195.045C177.414 195.881 178.185 196.549 179.092 196.972C179.999 197.395 181.006 197.557 182 197.44C182.76 197.33 183.56 197.09 184.34 196.91L193.49 194.67L193.71 194.61V194.83C194 195.98 194.26 197.14 194.57 198.24C194.872 199.323 195.439 200.312 196.22 201.12C196.975 201.901 197.901 202.495 198.925 202.856C199.949 203.217 201.043 203.335 202.12 203.2C206.33 202.27 210.39 201.2 214.18 200.3L214.05 200.53V200.45L213.91 199.88L214.35 200.26C216.487 202.086 219.19 203.114 222 203.17C223.292 203.181 224.578 203.006 225.82 202.65L229.41 201.78L241.41 198.87H241.52V198.98C241.62 199.44 241.68 199.91 241.8 200.32C241.922 200.723 242.119 201.1 242.38 201.43C242.869 202.022 243.541 202.434 244.29 202.6C244.883 202.726 245.499 202.689 246.072 202.493C246.646 202.298 247.157 201.951 247.55 201.49C248.028 200.928 248.311 200.227 248.36 199.49C248.376 199.211 248.376 198.93 248.36 198.65Z" fill="#263238"/>
<path d="M241.84 198.89C241.71 198.89 239.57 189.43 237.06 177.71C234.55 165.99 232.61 156.45 232.75 156.42C232.89 156.39 235.02 165.87 237.54 177.6C240.06 189.33 242 198.86 241.84 198.89Z" fill="#263238"/>
<path d="M214.23 200.4C214.1 200.4 212.23 193.31 209.97 184.49C207.71 175.67 206.06 168.49 206.19 168.49C206.32 168.49 208.19 175.58 210.45 184.4C212.71 193.22 214.36 200.37 214.23 200.4Z" fill="#263238"/>
<path d="M193.52 194.88C192.783 193.148 192.249 191.336 191.93 189.48C191.452 187.668 191.085 185.828 190.83 183.97C191.557 185.705 192.087 187.517 192.41 189.37C192.887 191.184 193.258 193.023 193.52 194.88Z" fill="#263238"/>
<path d="M203.38 171.15C202.463 171.406 201.531 171.606 200.59 171.75C199.73 171.93 198.71 172.16 197.59 172.47C196.385 172.78 195.223 173.236 194.13 173.83C193.026 174.341 192.157 175.253 191.7 176.38C191.475 177.366 191.455 178.387 191.64 179.38C191.86 181.11 192.15 182.17 192.08 182.19C191.673 181.318 191.407 180.386 191.29 179.43C191.062 178.389 191.062 177.311 191.29 176.27C191.468 175.64 191.814 175.07 192.29 174.62C192.779 174.151 193.327 173.748 193.92 173.42C195.045 172.8 196.25 172.336 197.5 172.04C198.64 171.75 199.68 171.56 200.55 171.42C201.479 171.219 202.429 171.128 203.38 171.15Z" fill="#E1E1E1"/>
<path d="M229.69 159C229.386 159.133 229.067 159.231 228.74 159.29C228.13 159.44 227.23 159.64 226.12 159.89L217.46 161.71C215.889 162.032 214.369 162.564 212.94 163.29C211.78 163.893 210.759 164.731 209.94 165.75C209.211 166.711 208.703 167.821 208.45 169C208.404 168.665 208.427 168.325 208.52 168C208.729 167.108 209.117 166.268 209.66 165.53C210.472 164.436 211.513 163.531 212.71 162.88C214.168 162.112 215.727 161.554 217.34 161.22C220.74 160.49 223.81 159.95 226.05 159.54C227.16 159.34 228.05 159.18 228.7 159.09C229.025 159.016 229.357 158.986 229.69 159Z" fill="#E1E1E1"/>
<path d="M188.93 186.46C188.35 186.854 187.692 187.117 187 187.23C185.75 187.57 184 187.71 182.11 188.11C181.238 188.284 180.393 188.577 179.6 188.98C178.962 189.32 178.384 189.762 177.89 190.29C177.466 190.819 177.1 191.392 176.8 192C176.847 191.286 177.136 190.608 177.62 190.08C178.109 189.484 178.707 188.986 179.38 188.61C180.198 188.147 181.081 187.81 182 187.61C183.93 187.21 185.69 187.12 186.92 186.88C188.15 186.64 188.9 186.39 188.93 186.46Z" fill="#E1E1E1"/>
<path d="M237.17 151.25C237.17 151.32 236.8 151.32 236.27 151.46C235.593 151.639 234.984 152.015 234.52 152.54C234.07 153.083 233.795 153.749 233.73 154.45C233.67 154.99 233.73 155.34 233.66 155.36C233.59 155.38 233.41 155.05 233.38 154.44C233.342 153.631 233.613 152.837 234.139 152.221C234.664 151.604 235.405 151.211 236.21 151.12C236.82 151.05 237.18 151.19 237.17 151.25Z" fill="#E1E1E1"/>
<path d="M239.91 72.56C239.91 76.17 237.29 78.36 232.97 78.36H228.41V83.71H226.62V66.71H233C237.29 66.74 239.91 68.92 239.91 72.56ZM238.11 72.56C238.11 69.85 236.32 68.29 232.92 68.29H228.41V76.78H232.92C236.32 76.78 238.11 75.23 238.11 72.56Z" fill="#36A503"/>
<path d="M252.92 75.8102V83.7102H251.27V81.7102C250.794 82.4197 250.137 82.9887 249.367 83.3581C248.596 83.7274 247.741 83.8835 246.89 83.8102C244 83.8102 242.23 82.3102 242.23 80.1102C242.23 78.1102 243.49 76.4902 247.15 76.4902H251.15V75.7202C251.15 73.5402 249.92 72.3502 247.54 72.3502C245.993 72.3289 244.489 72.8608 243.3 73.8502L242.52 72.5702C243.996 71.4069 245.831 70.795 247.71 70.8402C251.06 70.8602 252.92 72.5102 252.92 75.8102ZM251.2 79.8802V77.8002H247.2C244.73 77.8002 243.93 78.8002 243.93 80.0802C243.93 81.5602 245.12 82.4802 247.15 82.4802C248.014 82.5322 248.871 82.3083 249.599 81.841C250.327 81.3736 250.888 80.687 251.2 79.8802Z" fill="#36A503"/>
<path d="M269.46 71V82.2C269.46 86.59 267.3 88.58 263.08 88.58C260.923 88.6565 258.812 87.9457 257.14 86.58L258.01 85.27C259.412 86.427 261.183 87.0411 263 87C266.23 87 267.71 85.52 267.71 82.37V80.76C267.154 81.5614 266.403 82.2084 265.529 82.6404C264.654 83.0725 263.684 83.2753 262.71 83.23C261.877 83.2635 261.046 83.1283 260.266 82.8326C259.486 82.5369 258.774 82.0867 258.173 81.5091C257.572 80.9314 257.093 80.2382 256.767 79.4711C256.44 78.704 256.271 77.8788 256.271 77.045C256.271 76.2112 256.44 75.3859 256.767 74.6188C257.093 73.8517 257.572 73.1585 258.173 72.5809C258.774 72.0033 259.486 71.5531 260.266 71.2574C261.046 70.9616 261.877 70.8265 262.71 70.86C263.692 70.8243 264.666 71.0398 265.541 71.4861C266.416 71.9323 267.163 72.5945 267.71 73.41V71H269.46ZM267.78 77C267.812 76.0365 267.555 75.0855 267.043 74.2688C266.531 73.4521 265.787 72.807 264.906 72.416C264.025 72.025 263.047 71.906 262.098 72.0743C261.149 72.2426 260.271 72.6905 259.578 73.3606C258.885 74.0306 258.408 74.8924 258.208 75.8353C258.008 76.7783 258.094 77.7596 258.455 78.6533C258.816 79.5471 259.436 80.3126 260.235 80.8519C261.034 81.3911 261.976 81.6795 262.94 81.68C263.573 81.7207 264.207 81.6288 264.802 81.4101C265.397 81.1915 265.939 80.8509 266.395 80.4103C266.851 79.9697 267.209 79.4387 267.448 78.8515C267.686 78.2642 267.799 77.6335 267.78 77Z" fill="#36A503"/>
<path d="M285.38 77.87H274.72C274.756 78.4902 274.913 79.0973 275.184 79.6564C275.455 80.2155 275.834 80.7156 276.298 81.1281C276.763 81.5406 277.304 81.8574 277.891 82.0602C278.478 82.263 279.1 82.3479 279.72 82.31C280.454 82.3334 281.183 82.195 281.857 81.9046C282.531 81.6143 283.133 81.1791 283.62 80.63L284.62 81.75C283.705 82.712 282.527 83.3823 281.232 83.6771C279.938 83.9718 278.586 83.8778 277.344 83.4068C276.103 82.9357 275.029 82.1087 274.256 81.0294C273.483 79.9502 273.046 78.6667 273 77.34C272.955 76.4983 273.083 75.6562 273.377 74.8661C273.67 74.076 274.124 73.3547 274.708 72.747C275.292 72.1394 275.995 71.6583 276.773 71.3337C277.551 71.0091 278.387 70.8478 279.23 70.86C282.81 70.86 285.41 73.51 285.41 77.34C285.41 77.48 285.38 77.68 285.38 77.87ZM274.72 76.59H283.72C283.592 75.4861 283.063 74.4676 282.234 73.7283C281.404 72.989 280.331 72.5805 279.22 72.5805C278.109 72.5805 277.036 72.989 276.206 73.7283C275.377 74.4676 274.848 75.4861 274.72 76.59Z" fill="#36A503"/>
<path d="M307 76.3201V83.7101H305.28V76.4901C305.28 73.8001 303.87 72.4201 301.45 72.4201C298.71 72.4201 296.98 74.1101 296.98 77.0201V83.7101H295.26V71.0001H296.91V73.3501C297.427 72.5465 298.149 71.8957 299.002 71.4649C299.854 71.0342 300.807 70.8392 301.76 70.9001C304.87 70.8601 307 72.6601 307 76.3201Z" fill="#36A503"/>
<path d="M310.45 77.3401C310.45 76.0569 310.83 74.8025 311.543 73.7355C312.256 72.6684 313.269 71.8366 314.454 71.3451C315.639 70.8536 316.944 70.7245 318.202 70.9741C319.461 71.2237 320.618 71.8408 321.526 72.7474C322.434 73.6541 323.053 74.8096 323.304 76.0678C323.556 77.3261 323.429 78.6307 322.939 79.8168C322.449 81.0029 321.619 82.0171 320.553 82.7315C319.487 83.4458 318.233 83.8281 316.95 83.8301C316.089 83.8608 315.231 83.714 314.429 83.3988C313.627 83.0836 312.899 82.6069 312.289 81.9981C311.679 81.3894 311.202 80.6617 310.885 79.8604C310.569 79.059 310.421 78.2011 310.45 77.3401ZM321.67 77.3401C321.621 76.4116 321.301 75.5178 320.749 74.7697C320.196 74.0215 319.437 73.4519 318.564 73.1313C317.691 72.8108 316.744 72.7535 315.839 72.9664C314.933 73.1794 314.111 73.6534 313.472 74.3295C312.834 75.0056 312.408 75.8542 312.248 76.7701C312.087 77.6859 312.199 78.6287 312.569 79.4816C312.94 80.3345 313.552 81.06 314.331 81.5682C315.109 82.0763 316.02 82.3447 316.95 82.3401C317.597 82.3517 318.239 82.2281 318.836 81.9771C319.433 81.7262 319.97 81.3535 320.415 80.8828C320.859 80.4122 321.2 79.854 321.416 79.244C321.632 78.6339 321.719 77.9855 321.67 77.3401Z" fill="#36A503"/>
<path d="M333.65 82.9399C332.886 83.5445 331.934 83.8597 330.96 83.8299C330.459 83.8862 329.951 83.8296 329.474 83.6642C328.998 83.4987 328.564 83.2287 328.206 82.8739C327.847 82.5191 327.572 82.0885 327.402 81.6136C327.231 81.1388 327.169 80.6319 327.22 80.1299V72.4199H325V70.9999H327.27V68.1699H329V70.9999H332.87V72.4599H329V79.9999C328.947 80.3064 328.965 80.6212 329.055 80.9191C329.145 81.2171 329.303 81.49 329.516 81.7162C329.73 81.9424 329.993 82.1157 330.285 82.2222C330.578 82.3288 330.891 82.3657 331.2 82.3299C331.855 82.3362 332.492 82.1133 333 81.6999L333.65 82.9399Z" fill="#36A503"/>
<path d="M345.09 69.4601V71.0001H349V72.4601H345.12V83.7101H343.4V72.4201H341.12V71.0001H343.4V69.3901C343.358 68.8766 343.429 68.3601 343.609 67.8771C343.788 67.3942 344.072 66.9565 344.439 66.595C344.806 66.2335 345.248 65.9571 345.734 65.7852C346.22 65.6133 346.737 65.5501 347.25 65.6001C348.166 65.5714 349.065 65.8533 349.8 66.4001L349.22 67.6901C348.68 67.271 348.013 67.0487 347.33 67.0601C345.87 67.0601 345.09 67.8801 345.09 69.4601Z" fill="#36A503"/>
<path d="M349.84 77.3401C349.84 76.0569 350.22 74.8025 350.933 73.7355C351.646 72.6684 352.659 71.8366 353.844 71.3451C355.029 70.8536 356.334 70.7245 357.592 70.9741C358.851 71.2237 360.008 71.8408 360.916 72.7474C361.824 73.6541 362.443 74.8096 362.694 76.0678C362.946 77.3261 362.819 78.6307 362.329 79.8168C361.839 81.0029 361.009 82.0171 359.943 82.7315C358.877 83.4458 357.623 83.8281 356.34 83.8301C355.479 83.8608 354.621 83.714 353.819 83.3988C353.017 83.0836 352.289 82.6069 351.679 81.9981C351.069 81.3894 350.592 80.6617 350.275 79.8604C349.959 79.059 349.811 78.2011 349.84 77.3401ZM361.07 77.3401C361.021 76.412 360.701 75.5186 360.149 74.7707C359.598 74.0227 358.839 73.453 357.967 73.1322C357.094 72.8113 356.147 72.7534 355.242 72.9655C354.337 73.1777 353.515 73.6507 352.876 74.3258C352.237 75.001 351.811 75.8486 351.649 76.7639C351.487 77.6791 351.598 78.6216 351.966 79.4747C352.335 80.3278 352.946 81.054 353.723 81.5633C354.501 82.0726 355.411 82.3427 356.34 82.3401C356.988 82.3531 357.631 82.2305 358.229 81.9802C358.827 81.7299 359.366 81.3574 359.811 80.8866C360.257 80.4158 360.599 79.8571 360.815 79.2464C361.032 78.6356 361.119 77.9863 361.07 77.3401Z" fill="#36A503"/>
<path d="M377.82 71V83.71H376.17V81.39C375.696 82.1708 375.021 82.8096 374.215 83.2389C373.409 83.6683 372.502 83.8725 371.59 83.83C368.34 83.83 366.21 82.02 366.21 78.36V71H367.93V78.23C367.93 80.94 369.33 82.32 371.76 82.32C374.42 82.32 376.1 80.6 376.1 77.69V71H377.82Z" fill="#36A503"/>
<path d="M394.38 76.3201V83.7101H392.66V76.4901C392.66 73.8001 391.25 72.4201 388.82 72.4201C386.09 72.4201 384.36 74.1101 384.36 77.0201V83.7101H382.64V71.0001H384.29V73.3501C384.807 72.5465 385.529 71.8957 386.382 71.4649C387.234 71.0342 388.187 70.8392 389.14 70.9001C392.24 70.8601 394.38 72.6601 394.38 76.3201Z" fill="#36A503"/>
<path d="M410.74 65.7202V83.7202H409.09V81.1902C408.579 82.0279 407.853 82.7141 406.988 83.1782C406.124 83.6422 405.151 83.8673 404.17 83.8302C402.446 83.8302 400.793 83.1454 399.574 81.9264C398.355 80.7074 397.67 79.0541 397.67 77.3302C397.67 75.6063 398.355 73.953 399.574 72.734C400.793 71.515 402.446 70.8302 404.17 70.8302C405.127 70.8067 406.074 71.0299 406.92 71.4782C407.766 71.9266 408.482 72.585 409 73.3902V65.7202H410.74ZM409 77.3402C408.951 76.4117 408.631 75.518 408.079 74.7698C407.526 74.0217 406.767 73.452 405.894 73.1315C405.021 72.8109 404.074 72.7536 403.169 72.9666C402.263 73.1796 401.441 73.6535 400.803 74.3296C400.164 75.0058 399.738 75.8543 399.578 76.7702C399.417 77.686 399.529 78.6289 399.899 79.4818C400.27 80.3347 400.882 81.0602 401.661 81.5683C402.44 82.0764 403.35 82.3448 404.28 82.3402C404.927 82.3503 405.568 82.2256 406.164 81.9742C406.76 81.7227 407.297 81.35 407.741 80.8796C408.185 80.4093 408.526 79.8518 408.743 79.2424C408.96 78.633 409.047 77.9852 409 77.3402Z" fill="#36A503"/>
<path d="M290.66 44.0002H281.77V55.4502H269.47V44.0002H240.11V35.5102L265.81 0.930176H279.05L255.22 33.7202H269.86V23.5202H281.77V33.7202H290.66V44.0002Z" fill="#36A503"/>
<path d="M294.42 28.19C294.42 10.19 304.42 0 317.79 0C331.16 0 341.15 10.2 341.15 28.19C341.15 46.18 331.26 56.39 317.79 56.39C304.32 56.39 294.42 46.18 294.42 28.19ZM328.42 28.19C328.42 15.81 324.06 10.67 317.75 10.67C311.44 10.67 307.2 15.81 307.2 28.19C307.2 40.57 311.56 45.72 317.79 45.72C324.02 45.72 328.46 40.58 328.46 28.19H328.42Z" fill="#36A503"/>
<path d="M397.26 44.0002H388.38V55.4502H376.07V44.0002H346.71V35.5102L372.41 0.930176H385.65L361.82 33.7202H376.46V23.5202H388.38V33.7202H397.26V44.0002Z" fill="#36A503"/>
<path d="M382.86 144.51L382.68 144.63L382.11 144.94L379.9 146.09L371.7 150.28L344.18 164.14L344 164.24L343.88 164.06L341.47 160.67L338.06 155.83L338.38 155.9L312.73 170.71L305.09 175.07L303 176.22L302.46 176.51L302.27 176.6C302.27 176.6 302.32 176.6 302.44 176.47L302.96 176.14L304.96 174.91L312.53 170.43L338.09 155.43L338.29 155.32L338.41 155.5L341.84 160.34C342.66 161.51 343.47 162.66 344.24 163.74L343.93 163.66L371.55 150L379.82 146L382.07 144.92C382.3 144.81 382.5 144.73 382.65 144.65L382.86 144.51Z" fill="#E1E1E1"/>
<path d="M375.57 180.63L375.03 180.78L373.45 181.12L367.59 182.31L348 186.12H347.76V185.87L347.32 183.45C347.23 182.9 347.13 182.35 347.04 181.84L347.32 182.04C339.37 183.41 332.32 185.04 327.32 186.4C324.79 187.07 322.77 187.63 321.32 188.03L319.71 188.47C319.526 188.536 319.334 188.579 319.14 188.6C319.31 188.504 319.491 188.43 319.68 188.38L321.26 187.85C322.65 187.4 324.66 186.78 327.18 186.08C333.781 184.231 340.474 182.722 347.23 181.56H347.47V181.8C347.56 182.31 347.66 182.85 347.76 183.4C347.91 184.23 348.05 185.06 348.19 185.83L347.9 185.63L367.53 182L373.41 180.95L375.01 180.7C375.192 180.65 375.381 180.627 375.57 180.63Z" fill="#E1E1E1"/>
<path d="M308.53 145.92C308.65 145.98 306.11 151.48 302.84 158.2C299.57 164.92 296.84 170.32 296.71 170.26C296.58 170.2 299.14 164.71 302.4 157.98C305.66 151.25 308.41 145.86 308.53 145.92Z" fill="#E1E1E1"/>
<path d="M338.39 172.88C338.39 173.01 332.1 174.97 324.26 177.26C316.42 179.55 310.02 181.26 309.99 181.17C309.96 181.08 316.27 179.08 324.12 176.79C331.97 174.5 338.35 172.75 338.39 172.88Z" fill="#E1E1E1"/>
<path d="M289.45 128.7C289.616 129.021 289.754 129.355 289.86 129.7C290.12 130.44 290.46 131.41 290.86 132.62C291.73 135.2 292.91 138.76 294.31 142.95L294.41 143.24H294.09L286.28 143.08L286.53 142.79C286.71 143.79 286.91 144.79 287.11 145.89C288.39 152.94 289.54 159.32 290.4 164.01C290.79 166.29 291.11 168.15 291.34 169.52C291.43 170.12 291.51 170.62 291.57 171.02C291.611 171.194 291.628 171.372 291.62 171.55C291.548 171.384 291.497 171.209 291.47 171.03C291.39 170.64 291.28 170.15 291.15 169.55L290.06 164.08C289.17 159.39 287.96 153.02 286.62 145.98C286.43 144.92 286.23 143.87 286.05 142.88L285.99 142.58H286.29L294.1 142.78L293.89 143.07L290.61 132.69C290.24 131.47 289.94 130.48 289.72 129.69C289.607 129.367 289.517 129.036 289.45 128.7Z" fill="#E1E1E1"/>
<path d="M254.92 204.06C254.86 203.93 259.92 201.44 266.25 198.48C272.58 195.52 277.73 193.22 277.79 193.34C277.85 193.46 272.79 195.96 266.46 198.92C260.13 201.88 255 204.18 254.92 204.06Z" fill="#E1E1E1"/>
<path d="M278.5 211.31C279.804 209.349 281.248 207.484 282.82 205.73C284.268 203.872 285.842 202.114 287.53 200.47C286.221 202.431 284.774 204.295 283.2 206.05C281.753 207.907 280.183 209.665 278.5 211.31Z" fill="#E1E1E1"/>
<path d="M291.21 245.65C291.08 245.65 291.94 235.89 293.15 223.9C294.36 211.91 295.44 202.18 295.58 202.19C295.72 202.2 294.84 211.94 293.64 223.95C292.44 235.96 291.35 245.66 291.21 245.65Z" fill="#E1E1E1"/>
<path d="M273.86 159.49C274.771 160.769 275.545 162.14 276.17 163.58C276.938 164.95 277.565 166.394 278.04 167.89C277.124 166.614 276.35 165.243 275.73 163.8C274.962 162.431 274.335 160.987 273.86 159.49Z" fill="#E1E1E1"/>
</svg>
