<svg width="20" height="20" viewBox="0 0 20 20" fill="none" xmlns="http://www.w3.org/2000/svg">
<path d="M12.7033 17.805C12.5359 17.9725 12.337 18.1054 12.1182 18.1961C11.8994 18.2868 11.6648 18.3335 11.4279 18.3335C11.191 18.3335 10.9565 18.2868 10.7376 18.1961C10.5188 18.1054 10.32 17.9725 10.1525 17.805L3.02833 10.6808C2.69012 10.3427 2.50008 9.88408 2.5 9.40583V4.3025C2.5 3.30833 3.30833 2.5 4.30333 2.5H9.40583C9.88333 2.5 10.3425 2.69 10.6808 3.02833L17.805 10.1525C17.9725 10.32 18.1054 10.5188 18.1961 10.7376C18.2868 10.9565 18.3335 11.191 18.3335 11.4279C18.3335 11.6648 18.2868 11.8994 18.1961 12.1182C18.1054 12.337 17.9725 12.5359 17.805 12.7033L12.7033 17.805Z" stroke="#36A503" stroke-linecap="round" stroke-linejoin="round"/>
<path d="M5.41675 5.41675L5.83341 5.83341" stroke="#36A503" stroke-width="2" stroke-linecap="round"/>
</svg>
