<svg width="20" height="20" viewBox="0 0 20 20" fill="none" xmlns="http://www.w3.org/2000/svg">
<path fill-rule="evenodd" clip-rule="evenodd" d="M4 10C4 6.7 6.7 4 10 4C13.3 4 16 6.7 16 10C16 13.3 13.3 16 10 16C6.7 16 4 13.3 4 10ZM5.5 10C5.5 12.475 7.525 14.5 10 14.5C12.475 14.5 14.5 12.475 14.5 10C14.5 7.525 12.475 5.5 10 5.5C7.525 5.5 5.5 7.525 5.5 10Z" fill="#36A503"/>
<rect x="9.25" y="9.25" width="1.5" height="3.75" fill="#36A503"/>
<circle cx="10" cy="7.75" r="0.75" fill="#36A503"/>
</svg>
