<svg width="396" height="256" viewBox="0 0 396 256" fill="none" xmlns="http://www.w3.org/2000/svg">
<path opacity="0.15" fill-rule="evenodd" clip-rule="evenodd" d="M394.968 45.0958C403.195 -9.65166 361.26 -39.0826 303.919 -58.7161L322.52 -132.879L277.092 -144.129L258.983 -71.9208C247.057 -74.8781 234.795 -77.6682 222.61 -80.4325L240.848 -153.116L195.46 -164.367L176.846 -90.23C166.964 -92.4672 157.263 -94.6787 147.846 -97.0059L147.898 -97.2374L85.2671 -112.782L73.1858 -64.5663C73.1858 -64.5663 106.881 -56.8904 106.17 -56.4146C124.563 -51.8502 127.901 -39.7512 127.331 -30.1595L106.144 54.3276C107.412 54.649 109.054 55.1119 110.865 55.8319L106.079 54.649L76.3678 173.003C74.1171 178.557 68.4128 186.889 55.5555 183.726C56.0082 184.382 22.5456 175.536 22.5456 175.536L0 227.223L59.1126 241.868C65.7849 243.53 72.3761 245.239 78.8951 246.93L78.8978 246.931C83.12 248.026 87.3119 249.113 91.4758 250.174L72.6814 325.198L118.044 336.448L136.67 262.234C149.049 265.577 161.079 268.663 172.849 271.569L154.301 345.436L199.715 356.686L218.51 281.816C295.951 296.384 354.197 290.508 378.683 220.897C398.435 164.838 377.713 132.502 336.968 111.402C366.641 104.575 388.992 85.1729 394.955 45.0958H394.968ZM265.542 203.089C253.785 250.424 179.885 230.838 146.102 221.885L146.095 221.883C143.073 221.082 140.372 220.366 138.065 219.791L160.807 128.365C163.629 129.071 167.076 129.847 170.98 130.725L170.981 130.726C205.93 138.59 277.554 154.708 265.554 203.089H265.542ZM178.011 88.2995C206.199 95.8408 267.642 112.279 278.346 69.2784C289.289 25.2874 229.542 12.0284 200.362 5.55293C197.082 4.82497 194.188 4.18272 191.824 3.59219L171.205 86.5132C173.156 87.0006 175.446 87.6132 178.011 88.2995Z" fill="#F7931A"/>
</svg>
