<svg width="20" height="20" viewBox="0 0 20 20" fill="none" xmlns="http://www.w3.org/2000/svg">
<path opacity="0.2" d="M19.6996 12.4192C18.3639 17.7764 12.9377 21.0364 7.57988 19.7008C2.22457 18.3652 -1.03575 12.9389 0.300192 7.58206C1.63519 2.22425 7.06113 -1.03638 12.4174 0.299249C17.7749 1.63487 21.0349 7.06175 19.6993 12.4192H19.6996Z" fill="#F7931A"/>
<path fill-rule="evenodd" clip-rule="evenodd" d="M13.0117 8.83823C13.1466 7.93555 12.4593 7.4503 11.5195 7.12658L11.8243 5.90379L11.0798 5.71829L10.783 6.90886C10.5876 6.8601 10.3866 6.8141 10.1869 6.76852L10.4858 5.57011L9.74192 5.38461L9.43685 6.60698C9.27489 6.57009 9.11589 6.53363 8.96156 6.49526L8.96241 6.49144L7.93593 6.23514L7.73792 7.03012C7.73792 7.03012 8.29017 7.15668 8.27851 7.16453C8.57997 7.23979 8.63466 7.43927 8.62534 7.59742L8.27809 8.99044C8.29886 8.99574 8.32579 9.00338 8.35547 9.01525L8.27703 8.99574L7.79007 10.9472C7.75319 11.0387 7.6597 11.1761 7.44897 11.124C7.45639 11.1348 6.90796 10.9889 6.90796 10.9889L6.53845 11.8411L7.50727 12.0826C7.61664 12.11 7.72468 12.1382 7.83154 12.1661L7.83186 12.1662C7.90095 12.1842 7.96954 12.2021 8.03768 12.2196L7.72965 13.4566L8.47312 13.642L8.7784 12.4184C8.98128 12.4735 9.17843 12.5244 9.37135 12.5723L9.06735 13.7902L9.81166 13.9757L10.1197 12.7413C11.3889 12.9815 12.3435 12.8846 12.7448 11.7368C13.0685 10.8125 12.7289 10.2794 12.0611 9.93149C12.5475 9.81892 12.9138 9.49902 13.0115 8.83823H13.0117ZM11.3108 11.223C11.0995 12.0713 9.77137 11.7203 9.16423 11.5598L9.16416 11.5598C9.10982 11.5455 9.06125 11.5326 9.01978 11.5223L9.42851 9.88379C9.47922 9.89645 9.54117 9.91035 9.61135 9.9261C10.2395 10.067 11.5267 10.3559 11.311 11.223H11.3108ZM9.73768 9.16576C10.2443 9.30092 11.3485 9.59552 11.5409 8.82487C11.7376 8.03648 10.6638 7.79885 10.1394 7.6828C10.0804 7.66976 10.0284 7.65825 9.98593 7.64766L9.61536 9.13375C9.65043 9.14249 9.69158 9.15346 9.73768 9.16576Z" fill="#F7931A"/>
</svg>
