<svg width="24" height="24" viewBox="0 0 24 24" fill="none" xmlns="http://www.w3.org/2000/svg">
<path opacity="0.2" d="M23.6395 14.9031C22.0367 21.3317 15.5252 25.2437 9.09585 23.641C2.66947 22.0382 -1.2429 15.5267 0.360224 9.09847C1.96222 2.6691 8.47335 -1.24365 14.9008 0.359098C21.3298 1.96185 25.2418 8.4741 23.6391 14.9031H23.6395Z" fill="#F7931A"/>
<path fill-rule="evenodd" clip-rule="evenodd" d="M15.6141 10.6059C15.7759 9.52268 14.9511 8.94037 13.8234 8.55191L14.1892 7.08456L13.2958 6.86196L12.9396 8.29064C12.7051 8.23213 12.4639 8.17693 12.2243 8.12224L12.583 6.68414L11.6903 6.46155L11.3242 7.92839C11.1299 7.88412 10.9391 7.84037 10.7539 7.79432L10.7549 7.78974L9.52313 7.48218L9.28553 8.43616C9.28553 8.43616 9.94822 8.58803 9.93423 8.59744C10.296 8.68775 10.3616 8.92714 10.3504 9.11692L9.93372 10.7885C9.95865 10.7949 9.99096 10.8041 10.0266 10.8183L9.93245 10.7949L9.34811 13.1366C9.30384 13.2465 9.19165 13.4114 8.93879 13.3488C8.94769 13.3617 8.28957 13.1867 8.28957 13.1867L7.84616 14.2094L9.00874 14.4991C9.13991 14.532 9.26949 14.5658 9.39765 14.5993L9.39788 14.5993C9.48091 14.621 9.56335 14.6425 9.64524 14.6635L9.2756 16.1479L10.1678 16.3705L10.5341 14.9021C10.7775 14.9682 11.0141 15.0293 11.2456 15.0868L10.8808 16.5483L11.774 16.7709L12.1436 15.2895C13.6667 15.5778 14.8122 15.4615 15.2938 14.0842C15.6823 12.9751 15.2747 12.3353 14.4734 11.9178C15.057 11.7827 15.4966 11.3988 15.6138 10.6059H15.6141ZM13.573 13.4676C13.3194 14.4856 11.7257 14.0644 10.9971 13.8718L10.997 13.8718C10.9318 13.8546 10.8735 13.8392 10.8238 13.8268L11.3142 11.8606C11.3751 11.8758 11.4494 11.8924 11.5336 11.9113L11.5336 11.9113C12.2874 12.0805 13.8321 12.4271 13.5733 13.4676H13.573ZM11.6852 10.9989C12.2932 11.1611 13.6183 11.5146 13.8491 10.5899C14.0851 9.64379 12.7966 9.35864 12.1673 9.21937C12.0965 9.20372 12.0341 9.18991 11.9831 9.17721L11.5385 10.9605C11.5805 10.971 11.6299 10.9842 11.6852 10.9989Z" fill="#F7931A"/>
</svg>
