<svg width="24" height="24" viewBox="0 0 24 24" fill="none" xmlns="http://www.w3.org/2000/svg">
<path fill-rule="evenodd" clip-rule="evenodd" d="M16.5911 2C16.5911 2 7.37774 2.00435 7.36334 2.00435C4.051 2.02281 2 3.99565 2 7.00489V16.9951C2 20.0196 4.06661 22 7.40774 22C7.40774 22 16.6199 21.9967 16.6355 21.9967C19.9478 21.9783 22 20.0043 22 16.9951V7.00489C22 3.98045 19.9322 2 16.5911 2Z" stroke="#D2D2D2" stroke-width="1.5" stroke-linecap="round" stroke-linejoin="round"/>
<g clip-path="url(#clip0_141_3457)">
<path opacity="0.5" d="M8.76918 17.0769L8.76918 12.4615L6.46145 12.4615C6.37018 12.4615 6.28096 12.4344 6.20508 12.3837C6.1292 12.333 6.07005 12.2609 6.03513 12.1766C6.0002 12.0922 5.99106 11.9995 6.00886 11.9099C6.02666 11.8204 6.07061 11.7382 6.13513 11.6736L11.6737 6.13513C11.7602 6.04861 11.8776 6 12 6C12.1224 6 12.2398 6.04861 12.3263 6.13513L17.8649 11.6736C17.9294 11.7382 17.9733 11.8204 17.9911 11.9099C18.0089 11.9995 17.9998 12.0922 17.9649 12.1766C17.9299 12.2609 17.8708 12.333 17.7949 12.3837C17.719 12.4344 17.6298 12.4615 17.5386 12.4615L15.2308 12.4615L15.2308 17.0769C15.2306 17.3217 15.1332 17.5563 14.9602 17.7294C14.7871 17.9024 14.5525 17.9998 14.3077 18L9.69227 18C9.44756 17.9996 9.21298 17.9023 9.03995 17.7292C8.86692 17.5562 8.76954 17.3216 8.76918 17.0769ZM12 7.11406L7.57562 11.5384L9.69227 11.5384L9.69227 17.0769L14.3077 17.0769L14.3077 11.5384L16.4244 11.5384L12 7.11406Z" fill="#D2D2D2"/>
</g>
<defs>
<clipPath id="clip0_141_3457">
<rect width="12" height="12" fill="white" transform="translate(18 18) rotate(180)"/>
</clipPath>
</defs>
</svg>
