<svg width="36" height="36" viewBox="0 0 36 36" fill="none" xmlns="http://www.w3.org/2000/svg">
<path d="M19.0001 26C19.0001 25.4477 18.5523 25 18.0001 25C17.4478 25 17.0001 25.4477 17.0001 26C17.0001 26.5523 17.4478 27 18.0001 27C18.5523 27 19.0001 26.5523 19.0001 26Z" stroke="#36A503" stroke-width="2"/>
<path d="M19.0001 18C19.0001 17.4477 18.5523 17 18.0001 17C17.4478 17 17.0001 17.4477 17.0001 18C17.0001 18.5523 17.4478 19 18.0001 19C18.5523 19 19.0001 18.5523 19.0001 18Z" stroke="#36A503" stroke-width="2"/>
<path d="M19.0001 10C19.0001 9.44772 18.5523 9 18.0001 9C17.4478 9 17.0001 9.44772 17.0001 10C17.0001 10.5523 17.4478 11 18.0001 11C18.5523 11 19.0001 10.5523 19.0001 10Z" stroke="#36A503" stroke-width="2"/>
</svg>
