<svg width="20" height="20" viewBox="0 0 20 20" fill="none" xmlns="http://www.w3.org/2000/svg">
<path d="M6.99952 9.2669V18.7499C6.99953 18.8778 7.03224 19.0036 7.09455 19.1153C7.15686 19.2269 7.24669 19.3209 7.35552 19.388C7.46434 19.4552 7.58854 19.4935 7.71631 19.4991C7.84408 19.5048 7.97118 19.4777 8.08552 19.4204L12.5855 17.1704C12.7099 17.108 12.8146 17.0123 12.8877 16.8939C12.9608 16.7755 12.9995 16.6391 12.9995 16.4999V9.2669L19.58 1.2254C19.6425 1.14917 19.6893 1.06138 19.7178 0.967056C19.7463 0.87273 19.756 0.773711 19.7462 0.675653C19.7365 0.577594 19.7075 0.482416 19.661 0.395552C19.6144 0.308689 19.5513 0.231842 19.475 0.169399C19.3988 0.106955 19.311 0.0601381 19.2167 0.0316207C19.1224 0.0031032 19.0233 -0.00655625 18.9253 0.0031939C18.8272 0.0129441 18.732 0.0419129 18.6452 0.0884463C18.5583 0.13498 18.4815 0.198166 18.419 0.274399L11.669 8.5244C11.5593 8.65855 11.4994 8.82657 11.4995 8.9999V16.0364L8.49953 17.5364V8.9999C8.49967 8.82657 8.43977 8.65855 8.33002 8.5244L2.58202 1.4999H14.4995C14.6984 1.4999 14.8892 1.42088 15.0299 1.28023C15.1705 1.13958 15.2495 0.948811 15.2495 0.749899C15.2495 0.550986 15.1705 0.360221 15.0299 0.219569C14.8892 0.0789165 14.6984 -0.000101285 14.4995 -0.000101285H0.999524C0.857444 -0.000196072 0.718259 0.0400693 0.598173 0.116007C0.478088 0.191944 0.382043 0.30043 0.321221 0.428834C0.260398 0.557237 0.237299 0.700277 0.254614 0.841299C0.271929 0.98232 0.328945 1.11552 0.419024 1.2254L6.99952 9.2669Z" fill="#36A503"/>
</svg>
