<svg width="24" height="24" viewBox="0 0 24 24" fill="none" xmlns="http://www.w3.org/2000/svg">
<path fill-rule="evenodd" clip-rule="evenodd" d="M16.6857 2H7.31429C4.04762 2 2 4.31208 2 7.58516V16.4148C2 19.6879 4.0381 22 7.31429 22H16.6857C19.9619 22 22 19.6879 22 16.4148V7.58516C22 4.31208 19.9619 2 16.6857 2Z" stroke="white" stroke-width="1.5" stroke-linecap="round" stroke-linejoin="round"/>
<path d="M12 7C13.1046 7 14 7.89543 14 9C14 10.1046 13.1046 11 12 11C10.8954 11 10 10.1046 10 9C10 7.89543 10.8954 7 12 7Z" stroke="white"/>
<path d="M13.2464 13.0821L13.2541 13.083C13.6954 13.1295 14.1341 13.2223 14.5668 13.3607C15.2782 13.5802 15.761 13.9441 15.9138 14.4265C16.0288 14.7903 16.0288 15.213 15.9137 15.5771C15.7709 16.0279 15.3373 16.3762 14.7107 16.589L14.5735 16.6325C14.1322 16.78 13.695 16.875 13.2549 16.9202C12.572 17.0072 11.8932 17.0229 11.2161 16.9681L10.9761 16.9619C10.9094 16.9568 10.8533 16.9472 10.8012 16.9315C10.3891 16.8849 10.0182 16.8112 9.65816 16.7043L9.44316 16.6361C8.72955 16.4267 8.24251 16.0612 8.08461 15.5722C8.02935 15.3968 7.99984 15.1989 8.00001 14.9985C7.99952 14.7992 8.02864 14.6058 8.08518 14.4293C8.23872 13.9676 8.75485 13.5699 9.42993 13.3616C9.86581 13.2217 10.3042 13.129 10.7454 13.083C11.5828 12.9725 12.417 12.9725 13.2464 13.0821Z" stroke="white"/>
</svg>
