<svg width="24" height="24" viewBox="0 0 24 24" fill="none" xmlns="http://www.w3.org/2000/svg">
<path d="M13.9679 7.47716L14.136 7.8H14.5H16C16.2209 7.8 16.4 7.97909 16.4 8.2V8.4H7.6V8.2C7.6 7.97909 7.77909 7.8 8 7.8H9.5H9.864L10.0321 7.47716L10.0967 7.35329C10.3378 6.89036 10.8164 6.6 11.3383 6.6H12.6617C13.1836 6.6 13.6622 6.89036 13.9033 7.35329L13.9679 7.47716ZM9.625 17.4C8.8518 17.4 8.225 16.7732 8.225 16V10.2H15.775V16C15.775 16.7732 15.1482 17.4 14.375 17.4H9.625Z" stroke="#F5282D" stroke-width="1.2"/>
</svg>
