<svg width="12" height="10" viewBox="0 0 12 10" fill="none" xmlns="http://www.w3.org/2000/svg">
<path d="M0 1.25C0 1.11739 0.0526785 0.990215 0.146447 0.896447C0.240215 0.802679 0.367392 0.75 0.5 0.75H11.5C11.6326 0.75 11.7598 0.802679 11.8536 0.896447C11.9473 0.990215 12 1.11739 12 1.25C12 1.38261 11.9473 1.50979 11.8536 1.60355C11.7598 1.69732 11.6326 1.75 11.5 1.75H0.5C0.367392 1.75 0.240215 1.69732 0.146447 1.60355C0.0526785 1.50979 0 1.38261 0 1.25ZM2 5.25C2 5.11739 2.05268 4.99021 2.14645 4.89645C2.24021 4.80268 2.36739 4.75 2.5 4.75H9.5C9.63261 4.75 9.75979 4.80268 9.85355 4.89645C9.94732 4.99021 10 5.11739 10 5.25C10 5.38261 9.94732 5.50979 9.85355 5.60355C9.75979 5.69732 9.63261 5.75 9.5 5.75H2.5C2.36739 5.75 2.24021 5.69732 2.14645 5.60355C2.05268 5.50979 2 5.38261 2 5.25ZM4 9.25C4 9.11739 4.05268 8.99021 4.14645 8.89645C4.24021 8.80268 4.36739 8.75 4.5 8.75H7.5C7.63261 8.75 7.75979 8.80268 7.85355 8.89645C7.94732 8.99021 8 9.11739 8 9.25C8 9.38261 7.94732 9.50979 7.85355 9.60355C7.75979 9.69732 7.63261 9.75 7.5 9.75H4.5C4.36739 9.75 4.24021 9.69732 4.14645 9.60355C4.05268 9.50979 4 9.38261 4 9.25Z" fill="#36A503"/>
</svg>
