<svg width="40" height="40" viewBox="0 0 40 40" fill="none" xmlns="http://www.w3.org/2000/svg">
<path opacity="0.1" d="M20 40C31.0457 40 40 31.0457 40 20C40 8.9543 31.0457 0 20 0C8.9543 0 0 8.9543 0 20C0 31.0457 8.9543 40 20 40Z" fill="#3AB83A"/>
<mask id="mask0_319_8232" style="mask-type:alpha" maskUnits="userSpaceOnUse" x="0" y="0" width="40" height="40">
<path d="M20 40C31.0457 40 40 31.0457 40 20C40 8.9543 31.0457 0 20 0C8.9543 0 0 8.9543 0 20C0 31.0457 8.9543 40 20 40Z" fill="white"/>
</mask>
<g mask="url(#mask0_319_8232)">
<path fill-rule="evenodd" clip-rule="evenodd" d="M15.3846 18.963L20.7913 15.4485L26.1538 18.9849L20.7678 9.23071L15.3846 18.963ZM15.591 19.9781L20.7973 16.5472L25.9359 19.9526L20.8003 23.3872L15.591 19.9781ZM15.3846 20.9604C17.2821 22.2047 19.2621 23.5072 20.7913 24.515L26.1538 20.9604C24.2121 24.5223 22.5945 27.4875 20.7913 30.7692L19.6852 28.7642C18.1998 26.0718 16.668 23.2954 15.3846 20.9604Z" fill="#3AB83A"/>
<path fill-rule="evenodd" clip-rule="evenodd" d="M20.7692 9.23071L20.7894 15.4485L26.1538 18.9849L20.7692 9.23071ZM20.7946 16.5472L25.9671 19.9526L20.7971 23.3872L20.7946 16.5472ZM20.7895 24.515L26.1539 20.9604C24.49 24.5223 20.7895 30.7692 20.7895 30.7692V24.515Z" fill="#0B8311"/>
</g>
</svg>
