<svg width="24" height="24" viewBox="0 0 24 24" fill="none" xmlns="http://www.w3.org/2000/svg">
<path opacity="0.1" d="M12 24C18.6274 24 24 18.6274 24 12C24 5.37258 18.6274 0 12 0C5.37258 0 0 5.37258 0 12C0 18.6274 5.37258 24 12 24Z" fill="#3AB83A"/>
<mask id="mask0_134_45575" style="mask-type:alpha" maskUnits="userSpaceOnUse" x="0" y="0" width="24" height="24">
<path d="M12 24C18.6274 24 24 18.6274 24 12C24 5.37258 18.6274 0 12 0C5.37258 0 0 5.37258 0 12C0 18.6274 5.37258 24 12 24Z" fill="white"/>
</mask>
<g mask="url(#mask0_134_45575)">
<path fill-rule="evenodd" clip-rule="evenodd" d="M9.23096 11.378L12.475 9.26924L15.6925 11.3911L12.4608 5.53857L9.23096 11.378ZM9.35478 11.987L12.4786 9.92849L15.5617 11.9717L12.4804 14.0324L9.35478 11.987ZM9.23096 12.5764C10.3695 13.323 11.5575 14.1045 12.475 14.7092L15.6925 12.5764C14.5275 14.7135 13.5569 16.4926 12.475 18.4617L11.8115 17.259C10.9202 15.6435 10.001 13.9775 9.23096 12.5764Z" fill="#3AB83A"/>
<path fill-rule="evenodd" clip-rule="evenodd" d="M12.4619 5.53857L12.474 9.26924L15.6927 11.3911L12.4619 5.53857ZM12.4771 9.92849L15.5806 11.9717L12.4786 14.0324L12.4771 9.92849ZM12.4741 14.7092L15.6927 12.5764C14.6944 14.7135 12.4741 18.4617 12.4741 18.4617V14.7092Z" fill="#0B8311"/>
</g>
</svg>
