<svg width="10" height="10" viewBox="0 0 10 10" fill="none" xmlns="http://www.w3.org/2000/svg">
<path d="M4.99373 7.99865C4.86044 7.99891 4.73128 7.95243 4.62865 7.86729L1.20607 5.01162C1.08958 4.91468 1.01632 4.77537 1.00241 4.62435C0.988507 4.47333 1.03509 4.32296 1.13191 4.20632C1.22874 4.08969 1.36787 4.01634 1.51871 4.00242C1.66955 3.98849 1.81973 4.03513 1.93622 4.13208L4.99373 6.69075L8.05123 4.22346C8.10958 4.17602 8.17672 4.14059 8.24879 4.11921C8.32085 4.09783 8.39643 4.09092 8.47117 4.09888C8.54591 4.10685 8.61835 4.12952 8.68431 4.1656C8.75027 4.20168 8.80847 4.25046 8.85554 4.30913C8.90778 4.36785 8.94734 4.43675 8.97175 4.51149C8.99616 4.58624 9.00489 4.66523 8.9974 4.74351C8.9899 4.82179 8.96634 4.89768 8.92818 4.96642C8.89003 5.03516 8.83811 5.09527 8.77568 5.14298L5.3531 7.90156C5.24752 7.97324 5.12099 8.00743 4.99373 7.99865Z" fill="white"/>
</svg>
