<svg width="18" height="14" viewBox="0 0 18 14" fill="none" xmlns="http://www.w3.org/2000/svg">
<path d="M0 1.25C0 1.05109 0.0790178 0.860322 0.21967 0.71967C0.360322 0.579018 0.551088 0.5 0.75 0.5H17.25C17.4489 0.5 17.6397 0.579018 17.7803 0.71967C17.921 0.860322 18 1.05109 18 1.25C18 1.44891 17.921 1.63968 17.7803 1.78033C17.6397 1.92098 17.4489 2 17.25 2H0.75C0.551088 2 0.360322 1.92098 0.21967 1.78033C0.0790178 1.63968 0 1.44891 0 1.25ZM3 7.25C3 7.05109 3.07902 6.86032 3.21967 6.71967C3.36032 6.57902 3.55109 6.5 3.75 6.5H14.25C14.4489 6.5 14.6397 6.57902 14.7803 6.71967C14.921 6.86032 15 7.05109 15 7.25C15 7.44891 14.921 7.63968 14.7803 7.78033C14.6397 7.92098 14.4489 8 14.25 8H3.75C3.55109 8 3.36032 7.92098 3.21967 7.78033C3.07902 7.63968 3 7.44891 3 7.25ZM6 13.25C6 13.0511 6.07902 12.8603 6.21967 12.7197C6.36032 12.579 6.55109 12.5 6.75 12.5H11.25C11.4489 12.5 11.6397 12.579 11.7803 12.7197C11.921 12.8603 12 13.0511 12 13.25C12 13.4489 11.921 13.6397 11.7803 13.7803C11.6397 13.921 11.4489 14 11.25 14H6.75C6.55109 14 6.36032 13.921 6.21967 13.7803C6.07902 13.6397 6 13.4489 6 13.25Z" fill="#36A503"/>
</svg>
