<svg width="24" height="24" viewBox="0 0 24 24" fill="none" xmlns="http://www.w3.org/2000/svg">
<path fill-rule="evenodd" clip-rule="evenodd" d="M16.5911 2C16.5911 2 7.37774 2.00435 7.36334 2.00435C4.051 2.02281 2 3.99565 2 7.00489V16.9951C2 20.0196 4.06661 22 7.40774 22C7.40774 22 16.6199 21.9967 16.6355 21.9967C19.9478 21.9783 22 20.0043 22 16.9951V7.00489C22 3.98045 19.9322 2 16.5911 2Z" stroke="white" stroke-width="1.5" stroke-linecap="round" stroke-linejoin="round"/>
<path opacity="0.5" d="M15 9.9C15 8.7402 13.6569 7.8 12 7.8M12 7.8C10.3431 7.8 9 8.7402 9 9.9C9 11.0598 10.433 11.6866 12 12C13.5 12.3 15 12.9402 15 14.1C15 15.2598 13.6569 16.2 12 16.2M12 7.8V6M12 16.2C10.3431 16.2 9 15.2598 9 14.1M12 16.2V18" stroke="white" stroke-width="1.5"/>
</svg>
