<svg width="124" height="226" viewBox="0 0 124 226" fill="none" xmlns="http://www.w3.org/2000/svg">
<path opacity="0.1" fill-rule="evenodd" clip-rule="evenodd" d="M123.494 72.6155C127.525 45.7948 106.981 31.3765 78.8897 21.7581L88.002 -14.574L65.7471 -20.0855L56.8756 15.2891C51.0331 13.8404 45.0258 12.4735 39.0565 11.1193L47.9914 -24.4885L25.7555 -30L16.6369 6.3195C11.7955 5.22349 7.04293 4.14008 2.42973 2.99997L2.45508 2.8866L-28.2278 -4.72878L-34.1463 18.8921C-34.1463 18.8921 -17.6389 22.6526 -17.9875 22.8856C-8.97652 25.1217 -7.34163 31.049 -7.62045 35.748L-18.0001 77.1381C-17.3791 77.2956 -16.5744 77.5223 -15.6872 77.8751L-18.0318 77.2956L-32.5875 135.277C-33.6901 137.998 -36.4846 142.08 -42.7834 140.53C-42.5616 140.852 -58.9549 136.518 -58.9549 136.518L-70 161.84L-41.0408 169.014C-37.7715 169.828 -34.5418 170.666 -31.3477 171.494L-31.3422 171.496C-29.2757 172.032 -27.2241 172.564 -25.1861 173.083L-34.3935 209.837L-12.1703 215.349L-3.04527 178.991C3.01906 180.629 8.91228 182.141 14.6788 183.564L5.5918 219.752L27.8403 225.263L37.0477 188.585C74.9862 195.721 103.521 192.843 115.516 158.74C125.193 131.277 115.041 115.435 95.0802 105.099C109.617 101.754 120.567 92.2492 123.488 72.6155H123.494ZM60.0886 150.016C54.3287 173.206 18.1253 163.611 1.57531 159.224C0.0932541 158.832 -1.23119 158.481 -2.36206 158.199L8.77933 113.409C10.1614 113.755 11.8498 114.135 13.7625 114.565L13.7632 114.565C30.8849 118.418 65.9733 126.314 60.0944 150.016H60.0886ZM17.2072 93.7809C31.0165 97.4754 61.1173 105.528 66.3611 84.4625C71.7221 62.9114 42.452 56.4158 28.157 53.2434C26.5499 52.8868 25.1322 52.5722 23.9741 52.2829L13.8729 92.9058C14.8287 93.1446 15.9505 93.4447 17.2072 93.7809Z" fill="#F7931A"/>
</svg>
