<svg width="16" height="14" viewBox="0 0 16 14" fill="none" xmlns="http://www.w3.org/2000/svg">
<path d="M13.7291 0.75C14.9374 0.75 15.9166 1.72917 15.9166 2.9375V11.0625C15.9166 12.2708 14.9374 13.25 13.7291 13.25H2.27075C1.69059 13.25 1.13419 13.0195 0.723956 12.6093C0.31372 12.1991 0.083252 11.6427 0.083252 11.0625V2.9375C0.083252 1.72917 1.06242 0.75 2.27075 0.75H13.7291ZM14.8749 4.64625L8.25075 8.28958C8.1826 8.32706 8.10691 8.34879 8.02926 8.35319C7.9516 8.35759 7.87395 8.34454 7.802 8.315L7.74908 8.29L1.12492 4.64583V11.0625C1.12492 11.3664 1.24564 11.6578 1.46053 11.8727C1.67541 12.0876 1.96686 12.2083 2.27075 12.2083H13.7291C14.033 12.2083 14.3244 12.0876 14.5393 11.8727C14.7542 11.6578 14.8749 11.3664 14.8749 11.0625V4.64625ZM13.7291 1.79167H2.27075C1.96686 1.79167 1.67541 1.91239 1.46053 2.12727C1.24564 2.34216 1.12492 2.63361 1.12492 2.9375V3.45792L7.99992 7.23875L14.8749 3.4575V2.9375C14.8749 2.63361 14.7542 2.34216 14.5393 2.12727C14.3244 1.91239 14.033 1.79167 13.7291 1.79167Z" fill="#36A503"/>
</svg>
