<svg width="24" height="24" viewBox="0 0 24 24" fill="none" xmlns="http://www.w3.org/2000/svg">
<path d="M12 3L11.5029 3.0225L14.3724 5.88L15.3891 4.875C17.8368 6.0525 19.5992 8.43 19.8703 11.25H21C20.6159 6.63 16.7372 3 12 3ZM12 6C10.5464 6 9.36402 7.1775 9.36402 8.625C9.36402 10.0725 10.5464 11.25 12 11.25C13.4536 11.25 14.636 10.0725 14.636 8.625C14.636 7.1775 13.4536 6 12 6ZM12 7.5C12.6251 7.5 13.1297 8.0025 13.1297 8.625C13.1297 9.2475 12.6251 9.75 12 9.75C11.3749 9.75 10.8703 9.2475 10.8703 8.625C10.8703 8.0025 11.3749 7.5 12 7.5ZM3 12.75C3.3841 17.37 7.26276 21 12 21L12.4971 20.9775L9.62761 18.12L8.61088 19.125C6.16318 17.955 4.40084 15.57 4.12971 12.75H3ZM12 12.75C9.08535 12.75 6.72803 13.9275 6.72803 15.375V16.5H17.272V15.375C17.272 13.9275 14.9146 12.75 12 12.75ZM12 14.25C13.5891 14.25 14.7188 14.6475 15.3063 15H8.69372C9.28117 14.6475 10.4109 14.25 12 14.25Z" fill="#36A503"/>
</svg>
