<svg width="24" height="24" viewBox="0 0 24 24" fill="none" xmlns="http://www.w3.org/2000/svg">
<path d="M16.8635 6.474H16.6459C16.6181 4.003 14.5518 2 12.0123 2C10.7333 2.017 9.60316 2.46 8.72347 3.311C7.85506 4.149 7.37261 5.265 7.35414 6.474H7.13652C4.30446 6.474 2 8.719 2 11.479V16.995C2 19.755 4.30446 22 7.13652 22C7.56149 22 7.90638 21.664 7.90638 21.25C7.90638 20.836 7.56149 20.5 7.13652 20.5C5.15336 20.5 3.53972 18.928 3.53972 16.995V11.479C3.53972 9.546 5.15336 7.974 7.13652 7.974H7.349V9.555C7.349 9.969 7.6939 10.305 8.11887 10.305C8.54383 10.305 8.88873 9.969 8.88873 9.555V6.509C8.89181 5.702 9.21823 4.944 9.80641 4.375C10.3966 3.808 11.1839 3.545 12.0092 3.5C13.7019 3.5 15.0784 4.83 15.1061 6.474H11.7382C11.3133 6.474 10.9684 6.81 10.9684 7.224C10.9684 7.638 11.3133 7.974 11.7382 7.974H15.1113V9.555C15.1113 9.969 15.4562 10.305 15.8811 10.305C16.3061 10.305 16.651 9.969 16.651 9.555V7.974H16.8635C18.8466 7.974 20.4603 9.546 20.4603 11.479V16.995C20.4603 18.928 18.8466 20.5 16.8635 20.5H11.3297C10.9047 20.5 10.5598 20.836 10.5598 21.25C10.5598 21.664 10.9047 22 11.3297 22H16.8635C19.6955 22 22 19.755 22 16.995V11.479C22 8.719 19.6955 6.474 16.8635 6.474Z" fill="#D2D2D2"/>
</svg>
