<svg width="24" height="24" viewBox="0 0 24 24" fill="none" xmlns="http://www.w3.org/2000/svg">
<path fill-rule="evenodd" clip-rule="evenodd" d="M16.5911 2C16.5911 2 7.37774 2.00435 7.36334 2.00435C4.051 2.02281 2 3.99565 2 7.00489V16.9951C2 20.0196 4.06661 22 7.40774 22C7.40774 22 16.6199 21.9967 16.6355 21.9967C19.9478 21.9783 22 20.0043 22 16.9951V7.00489C22 3.98045 19.9322 2 16.5911 2Z" stroke="white" stroke-width="1.5" stroke-linecap="round" stroke-linejoin="round"/>
<path d="M9 15L15 9" stroke="white" stroke-width="1.5" stroke-linecap="round" stroke-linejoin="round"/>
<path d="M15 16C14.7333 16 14.48 15.8926 14.2933 15.7047C14.2 15.6107 14.1333 15.4899 14.08 15.3691C14.0267 15.2483 14 15.1289 14 14.9933C14 14.8591 14.0267 14.7248 14.08 14.604C14.1333 14.4832 14.2 14.3758 14.2933 14.2819C14.6667 13.906 15.3333 13.906 15.7067 14.2819C15.8 14.3758 15.88 14.4832 15.9333 14.604C15.9733 14.7248 16 14.8591 16 14.9933C16 15.1289 15.9733 15.2483 15.9333 15.3691C15.88 15.4899 15.8 15.6107 15.7067 15.7047C15.52 15.8926 15.2667 16 15 16Z" fill="white"/>
<path d="M9 10C8.86667 10 8.74667 9.97183 8.62667 9.91816C8.50667 9.8645 8.38667 9.79876 8.29333 9.70485C8.2 9.59752 8.13333 9.49019 8.08 9.36944C8.02667 9.24736 8 9.12796 8 8.9938C8 8.85829 8.02667 8.72547 8.08 8.60473C8.13333 8.48398 8.2 8.36324 8.29333 8.28274C8.68 7.90575 9.33333 7.90575 9.70667 8.28274C9.89333 8.46923 10 8.72547 10 8.9938C10 9.12796 9.98667 9.24736 9.93333 9.36944C9.88 9.49019 9.8 9.59752 9.70667 9.70485C9.61333 9.79876 9.50667 9.8645 9.38667 9.91816C9.26667 9.97183 9.13333 10 9 10Z" fill="white"/>
</svg>
