<svg width="24" height="24" viewBox="0 0 24 24" fill="none" xmlns="http://www.w3.org/2000/svg">
<path fill-rule="evenodd" clip-rule="evenodd" d="M16.5911 2C16.5911 2 7.37774 2.00435 7.36334 2.00435C4.051 2.02281 2 3.99565 2 7.00489V16.9951C2 20.0196 4.06661 22 7.40774 22C7.40774 22 16.6199 21.9967 16.6355 21.9967C19.9478 21.9783 22 20.0043 22 16.9951V7.00489C22 3.98045 19.9322 2 16.5911 2Z" stroke="#D2D2D2" stroke-width="1.5" stroke-linecap="round" stroke-linejoin="round"/>
<path opacity="0.5" d="M16.2927 14.0837C15.9486 13.7393 15.5464 13.4582 15.1047 13.2532C15.7276 12.7486 16.125 11.9786 16.125 11.1152C16.125 9.59172 14.8545 8.34188 13.331 8.36525C11.8309 8.38863 10.6223 9.61097 10.6223 11.1152C10.6223 11.9786 11.021 12.7486 11.6425 13.2532C11.2007 13.458 10.7986 13.7391 10.4545 14.0837C9.70376 14.8358 9.27752 15.8285 9.25002 16.8873C9.24965 16.9019 9.25222 16.9165 9.25759 16.9302C9.26295 16.9439 9.271 16.9563 9.28125 16.9668C9.2915 16.9773 9.30375 16.9857 9.31728 16.9914C9.33081 16.9971 9.34534 17 9.36002 17H10.13C10.1891 17 10.2386 16.9533 10.24 16.8941C10.2661 16.0967 10.5893 15.35 11.1571 14.7836C11.4477 14.4914 11.7934 14.2598 12.1741 14.1022C12.5548 13.9445 12.9629 13.8639 13.375 13.8651C14.2124 13.8651 15.0002 14.191 15.5929 14.7836C16.1593 15.35 16.4825 16.0967 16.51 16.8941C16.5113 16.9533 16.5608 17 16.62 17H17.39C17.4046 17 17.4192 16.9971 17.4327 16.9914C17.4462 16.9857 17.4585 16.9773 17.4687 16.9668C17.479 16.9563 17.487 16.9439 17.4924 16.9302C17.4978 16.9165 17.5003 16.9019 17.5 16.8873C17.4725 15.8285 17.0462 14.8358 16.2927 14.0837ZM13.375 12.8751C12.9047 12.8751 12.462 12.6923 12.1306 12.3595C11.9643 12.1945 11.833 11.9977 11.7444 11.7809C11.6558 11.564 11.6118 11.3315 11.615 11.0973C11.6191 10.6463 11.7993 10.2104 12.1141 9.88733C12.4441 9.54909 12.8855 9.36072 13.3571 9.35522C13.8232 9.3511 14.2756 9.53259 14.6084 9.85846C14.9494 10.1926 15.1364 10.6394 15.1364 11.1152C15.1364 11.5854 14.9535 12.0268 14.6207 12.3595C14.4575 12.5235 14.2633 12.6536 14.0495 12.7421C13.8357 12.8306 13.6064 12.8758 13.375 12.8751ZM9.93064 11.4782C9.91826 11.3585 9.91139 11.2375 9.91139 11.1152C9.91139 10.8966 9.93201 10.6834 9.97051 10.4758C9.98014 10.4263 9.95401 10.3754 9.90864 10.3548C9.72164 10.2709 9.54977 10.1555 9.40127 10.0097C9.22628 9.84005 9.08859 9.63577 8.99697 9.40992C8.90535 9.18408 8.86182 8.94161 8.86914 8.69799C8.88152 8.25663 9.05889 7.83727 9.36827 7.52103C9.70789 7.17316 10.1644 6.98342 10.6498 6.98892C11.0884 6.99304 11.5119 7.16216 11.8323 7.4619C11.9409 7.56365 12.0344 7.6764 12.1127 7.79739C12.1402 7.84002 12.1939 7.85789 12.2406 7.84139C12.4826 7.75752 12.7384 7.6984 13.001 7.6709C13.078 7.66265 13.122 7.58015 13.0876 7.5114C12.6407 6.6273 11.7278 6.01682 10.6718 6.00032C9.14689 5.97695 7.8764 7.22679 7.8764 8.74887C7.8764 9.61234 8.27377 10.3823 8.89664 10.8869C8.4594 11.089 8.05652 11.3682 7.70728 11.7174C6.95378 12.4695 6.52753 13.4622 6.50003 14.5223C6.49967 14.537 6.50224 14.5516 6.5076 14.5653C6.51297 14.5789 6.52101 14.5914 6.53126 14.6019C6.54151 14.6124 6.55377 14.6207 6.56729 14.6264C6.58082 14.6321 6.59535 14.6351 6.61003 14.6351H7.3814C7.44053 14.6351 7.49003 14.5883 7.4914 14.5292C7.51753 13.7317 7.84065 12.9851 8.40852 12.4186C8.81277 12.0144 9.30777 11.7339 9.84814 11.5978C9.90176 11.584 9.93751 11.5332 9.93064 11.4782Z" fill="#D2D2D2"/>
</svg>
