<svg width="40" height="40" viewBox="0 0 40 40" fill="none" xmlns="http://www.w3.org/2000/svg">
<path opacity="0.2" fill-rule="evenodd" clip-rule="evenodd" d="M20 40C31.0457 40 40 31.0457 40 20C40 8.9543 31.0457 0 20 0C8.9543 0 0 8.9543 0 20C0 31.0457 8.9543 40 20 40Z" fill="#83BD67"/>
<path fill-rule="evenodd" clip-rule="evenodd" d="M18.2474 10.7695C19.3458 10.7695 20.4402 10.7695 21.5386 10.7695C21.474 11.5126 21.4053 12.2596 21.3447 13.0027C22.6249 13.0956 23.8727 13.5075 24.9953 14.1172C24.5107 15.3368 24.0221 16.5563 23.5335 17.7759C22.5885 16.9723 21.3447 16.5281 20.105 16.5442C19.794 16.5523 19.471 16.6129 19.2125 16.7906C19.0429 16.9077 18.9177 17.0894 18.8814 17.2913C18.8531 17.4528 18.8612 17.6346 18.95 17.7799C19.051 17.9415 19.2287 18.0384 19.4064 18.099C19.7698 18.2282 20.1615 18.2363 20.5411 18.2766C21.4336 18.3857 22.3301 18.5391 23.1741 18.8581C23.8283 19.1085 24.4542 19.4841 24.9024 20.0333C25.3264 20.5381 25.5728 21.1761 25.6657 21.8303C25.7747 22.5854 25.7424 23.3689 25.5082 24.1038C25.3264 24.6934 25.0155 25.2426 24.6117 25.707C23.7758 26.6762 22.5481 27.2577 21.2882 27.4071C21.3286 28.2027 21.377 28.9941 21.4215 29.7897C20.3796 29.7897 19.3418 29.7897 18.3039 29.7897C18.3443 29.0022 18.3968 28.2148 18.4332 27.4273C17.5972 27.399 16.7694 27.2133 15.99 26.9185C15.2349 26.6318 14.5161 26.2522 13.8457 25.808C14.3384 24.54 14.831 23.2719 15.3277 21.9999C15.8891 22.4724 16.4867 22.9125 17.1409 23.2477C17.8436 23.6071 18.6229 23.8373 19.4144 23.8454C19.79 23.8494 20.1777 23.8292 20.533 23.7C20.7511 23.6192 20.9651 23.4779 21.0621 23.2558C21.163 23.0216 21.1549 22.7268 21.0015 22.5168C20.8924 22.3755 20.739 22.2785 20.5775 22.2099C20.3594 22.121 20.1333 22.0726 19.9031 22.0362C19.055 21.8989 18.203 21.7859 17.3832 21.5193C16.725 21.3053 16.0829 21.0065 15.5579 20.5461C15.2268 20.2594 14.9522 19.9081 14.7583 19.5123C14.4676 18.9228 14.3586 18.2564 14.3666 17.6022C14.3666 16.8713 14.5161 16.1283 14.8795 15.4862C15.1945 14.9128 15.675 14.4443 16.2162 14.0849C16.8704 13.6528 17.6013 13.358 18.3443 13.1198C18.312 12.3364 18.2797 11.553 18.2474 10.7695Z" fill="#83BD67"/>
</svg>
