<svg width="24" height="24" viewBox="0 0 24 24" fill="none" xmlns="http://www.w3.org/2000/svg">
<path opacity="0.2" fill-rule="evenodd" clip-rule="evenodd" d="M12 24C18.6274 24 24 18.6274 24 12C24 5.37258 18.6274 0 12 0C5.37258 0 0 5.37258 0 12C0 18.6274 5.37258 24 12 24Z" fill="#83BD67"/>
<path fill-rule="evenodd" clip-rule="evenodd" d="M10.9486 6.46191C11.6077 6.46191 12.2643 6.46191 12.9233 6.46191C12.8846 6.90774 12.8434 7.35598 12.807 7.8018C13.5751 7.85753 14.3238 8.10467 14.9974 8.47054C14.7066 9.20227 14.4134 9.934 14.1203 10.6657C13.5533 10.1836 12.807 9.91704 12.0632 9.92673C11.8766 9.93158 11.6828 9.96792 11.5277 10.0745C11.426 10.1448 11.3508 10.2538 11.329 10.375C11.3121 10.4719 11.3169 10.5809 11.3702 10.6682C11.4308 10.7651 11.5374 10.8232 11.644 10.8596C11.8621 10.9371 12.0971 10.9419 12.3249 10.9662C12.8603 11.0316 13.3982 11.1237 13.9046 11.3151C14.2971 11.4653 14.6727 11.6906 14.9417 12.0202C15.1961 12.323 15.3439 12.7059 15.3996 13.0984C15.465 13.5515 15.4456 14.0215 15.3051 14.4625C15.1961 14.8162 15.0095 15.1458 14.7672 15.4244C14.2656 16.0059 13.5291 16.3548 12.7731 16.4445C12.7973 16.9218 12.8264 17.3967 12.8531 17.874C12.2279 17.874 11.6053 17.874 10.9826 17.874C11.0068 17.4015 11.0383 16.9291 11.0601 16.4566C10.5585 16.4396 10.0618 16.3282 9.5942 16.1513C9.14111 15.9793 8.70983 15.7515 8.30762 15.485C8.60322 14.7242 8.89882 13.9634 9.19684 13.2001C9.53363 13.4836 9.89223 13.7477 10.2847 13.9488C10.7063 14.1645 11.174 14.3026 11.6489 14.3074C11.8742 14.3098 12.1068 14.2977 12.32 14.2202C12.4509 14.1717 12.5793 14.0869 12.6374 13.9537C12.698 13.8131 12.6932 13.6363 12.6011 13.5103C12.5357 13.4255 12.4436 13.3673 12.3467 13.3261C12.2158 13.2728 12.0801 13.2437 11.942 13.2219C11.4332 13.1396 10.922 13.0717 10.4301 12.9118C10.0352 12.7834 9.64993 12.6041 9.33495 12.3279C9.13627 12.1558 8.97151 11.945 8.8552 11.7076C8.68075 11.3538 8.61533 10.9541 8.62018 10.5615C8.62018 10.123 8.70983 9.67717 8.92789 9.29192C9.11688 8.94786 9.40521 8.6668 9.72989 8.45116C10.1224 8.1919 10.561 8.01502 11.0068 7.87207C10.9874 7.40202 10.968 6.93197 10.9486 6.46191Z" fill="#83BD67"/>
</svg>
