<svg width="48" height="48" viewBox="0 0 48 48" fill="none" xmlns="http://www.w3.org/2000/svg">
<path d="M43.5017 11.9203C42.0673 12.5391 40.5063 12.9844 38.8985 13.1578C40.5678 12.1661 41.8179 10.5994 42.4142 8.75158C40.8478 9.68341 39.1318 10.3368 37.3423 10.6828C36.5944 9.88327 35.6898 9.2463 34.685 8.81162C33.6801 8.37693 32.5965 8.15385 31.5017 8.15627C27.072 8.15627 23.5095 11.7469 23.5095 16.1531C23.5095 16.7719 23.5845 17.3906 23.7064 17.986C17.0735 17.6391 11.1579 14.4703 7.2251 9.61877C6.5085 10.8427 6.13298 12.2364 6.1376 13.6547C6.1376 16.4297 7.54854 18.8766 9.7001 20.3156C8.43216 20.2657 7.1939 19.9172 6.08604 19.2985V19.3969C6.08604 23.2828 8.83292 26.5031 12.4939 27.2438C11.8065 27.4223 11.0994 27.5137 10.3892 27.5156C9.86885 27.5156 9.37667 27.4641 8.87979 27.3938C9.89229 30.5625 12.8407 32.8641 16.3517 32.9391C13.6048 35.0906 10.1642 36.3563 6.42823 36.3563C5.75792 36.3563 5.13917 36.3328 4.49698 36.2578C8.04073 38.5313 12.2454 39.8438 16.7735 39.8438C31.4735 39.8438 39.5173 27.6656 39.5173 17.0953C39.5173 16.7485 39.5173 16.4016 39.4939 16.0547C41.0501 14.9156 42.4142 13.5047 43.5017 11.9203Z" fill="white"/>
</svg>
