<svg width="24" height="24" viewBox="0 0 24 24" fill="none" xmlns="http://www.w3.org/2000/svg">
<path d="M6.06798 8.32161C6.01749 8.41867 5.99439 8.52765 6.00115 8.63685C6.00792 8.74605 6.04429 8.85134 6.10638 8.94143L11.5067 16.7417C11.5619 16.8214 11.6356 16.8865 11.7215 16.9315C11.8074 16.9765 11.9029 17 11.9999 17C12.0969 17 12.1924 16.9765 12.2783 16.9315C12.3642 16.8865 12.4379 16.8214 12.4931 16.7417L17.8934 8.94143C17.9557 8.85141 17.9922 8.74607 17.9989 8.63681C18.0056 8.52755 17.9823 8.41853 17.9315 8.32157C17.8807 8.2246 17.8043 8.14338 17.7107 8.0867C17.617 8.03002 17.5096 8.00004 17.4002 8L6.5996 8C6.49008 7.99998 6.38263 8.02994 6.28892 8.08663C6.1952 8.14333 6.1188 8.22459 6.06798 8.32161Z" fill="#2F80ED"/>
</svg>
