<svg width="24" height="24" viewBox="0 0 24 24" fill="none" xmlns="http://www.w3.org/2000/svg">
<path d="M16.1784 6.56798C16.0813 6.51749 15.9723 6.49439 15.8632 6.50115C15.754 6.50792 15.6487 6.54429 15.5586 6.60638L7.75832 12.0067C7.67861 12.0619 7.61347 12.1356 7.56849 12.2215C7.5235 12.3074 7.5 12.4029 7.5 12.4999C7.5 12.5969 7.5235 12.6924 7.56849 12.7783C7.61347 12.8642 7.67861 12.9379 7.75832 12.9931L15.5586 18.3934C15.6486 18.4557 15.7539 18.4922 15.8632 18.4989C15.9725 18.5056 16.0815 18.4823 16.1784 18.4315C16.2754 18.3807 16.3566 18.3043 16.4133 18.2107C16.47 18.117 16.5 18.0096 16.5 17.9002L16.5 7.0996C16.5 6.99008 16.4701 6.88263 16.4134 6.78892C16.3567 6.6952 16.2754 6.6188 16.1784 6.56798Z" fill="#2F80ED"/>
</svg>
