<svg width="24" height="24" viewBox="0 0 24 24" fill="none" xmlns="http://www.w3.org/2000/svg">
<path d="M0 12C0 5.37258 5.37258 0 12 0C18.6274 0 24 5.37258 24 12C24 18.6274 18.6274 24 12 24C5.37258 24 0 18.6274 0 12Z" fill="white"/>
<mask id="mask0_43_533" style="mask-type:alpha" maskUnits="userSpaceOnUse" x="0" y="0" width="24" height="24">
<path fill-rule="evenodd" clip-rule="evenodd" d="M0 12C0 5.37258 5.37258 0 12 0C18.6274 0 24 5.37258 24 12C24 18.6274 18.6274 24 12 24C5.37258 24 0 18.6274 0 12Z" fill="white"/>
</mask>
<g mask="url(#mask0_43_533)">
<path fill-rule="evenodd" clip-rule="evenodd" d="M12.0007 5.59998C10.2625 5.59998 10.0444 5.60758 9.36174 5.63864C8.6804 5.66984 8.21533 5.77771 7.80839 5.93598C7.38745 6.09945 7.03038 6.31812 6.67464 6.67399C6.31864 7.02972 6.09997 7.38679 5.93597 7.8076C5.7773 8.21467 5.6693 8.67987 5.63863 9.36095C5.6081 10.0436 5.6001 10.2619 5.6001 12C5.6001 13.7382 5.60783 13.9557 5.63876 14.6383C5.6701 15.3197 5.77797 15.7847 5.9361 16.1917C6.0997 16.6126 6.31837 16.9697 6.67424 17.3254C7.02985 17.6814 7.38692 17.9006 7.80759 18.0641C8.21479 18.2224 8.68 18.3302 9.3612 18.3614C10.0439 18.3925 10.2619 18.4001 11.9999 18.4001C13.7382 18.4001 13.9557 18.3925 14.6383 18.3614C15.3197 18.3302 15.7853 18.2224 16.1925 18.0641C16.6133 17.9006 16.9698 17.6814 17.3254 17.3254C17.6814 16.9697 17.9001 16.6126 18.0641 16.1918C18.2214 15.7847 18.3294 15.3195 18.3614 14.6385C18.3921 13.9558 18.4001 13.7382 18.4001 12C18.4001 10.2619 18.3921 10.0438 18.3614 9.36108C18.3294 8.67974 18.2214 8.21467 18.0641 7.80773C17.9001 7.38679 17.6814 7.02972 17.3254 6.67399C16.9694 6.31798 16.6134 6.09931 16.1921 5.93598C15.7841 5.77771 15.3187 5.66984 14.6374 5.63864C13.9547 5.60758 13.7374 5.59998 11.9987 5.59998H12.0007ZM11.7872 6.75326H11.7874L12.0007 6.75332C13.7095 6.75332 13.9121 6.75945 14.5869 6.79012C15.2109 6.81865 15.5495 6.92292 15.7751 7.01052C16.0738 7.12652 16.2867 7.26519 16.5106 7.4892C16.7346 7.7132 16.8733 7.92653 16.9896 8.2252C17.0772 8.45054 17.1816 8.78921 17.21 9.41322C17.2406 10.0879 17.2473 10.2906 17.2473 11.9986C17.2473 13.7066 17.2406 13.9093 17.21 14.5839C17.1814 15.2079 17.0772 15.5466 16.9896 15.7719C16.8736 16.0706 16.7346 16.2833 16.5106 16.5072C16.2866 16.7312 16.0739 16.8698 15.7751 16.9858C15.5498 17.0738 15.2109 17.1778 14.5869 17.2064C13.9122 17.237 13.7095 17.2437 12.0007 17.2437C10.2917 17.2437 10.0892 17.237 9.41454 17.2064C8.79053 17.1776 8.45186 17.0733 8.22613 16.9857C7.92746 16.8697 7.71412 16.731 7.49012 16.507C7.26612 16.283 7.12745 16.0702 7.01118 15.7714C6.92358 15.5461 6.81918 15.2074 6.79078 14.5834C6.76011 13.9087 6.75398 13.7061 6.75398 11.997C6.75398 10.2879 6.76011 10.0863 6.79078 9.41162C6.81931 8.78761 6.92358 8.44894 7.01118 8.22334C7.12718 7.92467 7.26612 7.71133 7.49012 7.48733C7.71412 7.26333 7.92746 7.12466 8.22613 7.00839C8.45173 6.92039 8.79053 6.81639 9.41454 6.78772C10.0049 6.76105 10.2337 6.75305 11.4266 6.75172V6.75332C11.538 6.75315 11.6579 6.7532 11.7872 6.75326ZM14.649 8.58374C14.649 8.1596 14.993 7.816 15.417 7.816V7.81573C15.841 7.81573 16.185 8.15974 16.185 8.58374C16.185 9.00774 15.841 9.35175 15.417 9.35175C14.993 9.35175 14.649 9.00774 14.649 8.58374ZM12.0006 8.71334C10.1855 8.71341 8.714 10.185 8.714 12C8.714 13.8151 10.1856 15.2861 12.0007 15.2861C13.8158 15.2861 15.2869 13.8151 15.2869 12C15.2869 10.185 13.8157 8.71334 12.0006 8.71334ZM14.1341 12C14.1341 10.8218 13.1788 9.86669 12.0007 9.86669C10.8224 9.86669 9.86734 10.8218 9.86734 12C9.86734 13.1782 10.8224 14.1334 12.0007 14.1334C13.1788 14.1334 14.1341 13.1782 14.1341 12Z" fill="black"/>
</g>
</svg>
