<svg width="24" height="24" viewBox="0 0 24 24" fill="none" xmlns="http://www.w3.org/2000/svg">
<path d="M12 24C18.6274 24 24 18.6274 24 12C24 5.37258 18.6274 0 12 0C5.37258 0 0 5.37258 0 12C0 18.6274 5.37258 24 12 24Z" fill="white"/>
<path d="M7.42844 16.6207V19.1821L9.82349 17.8205C10.4911 18.0129 11.2008 18.1168 11.9361 18.1168C15.8776 18.1168 19.0724 15.1355 19.0724 11.4584C19.0724 7.78104 15.8776 4.79999 11.9361 4.79999C7.99482 4.79999 4.7998 7.78104 4.7998 11.4584C4.7998 13.5407 5.82424 15.3999 7.42844 16.6207Z" fill="url(#paint0_linear_43_545)"/>
<path d="M11.1742 9.6347L7.32568 13.7095L10.8282 11.7878L12.6582 13.7095L16.485 9.6347L13.0214 11.5228L11.1742 9.6347Z" fill="white"/>
<defs>
<linearGradient id="paint0_linear_43_545" x1="5.59621" y1="5.77222" x2="5.59621" y2="18.5493" gradientUnits="userSpaceOnUse">
<stop stop-color="#00C6FF"/>
<stop offset="1" stop-color="#0068FF"/>
</linearGradient>
</defs>
</svg>
