<svg width="24" height="24" viewBox="0 0 24 24" fill="none" xmlns="http://www.w3.org/2000/svg">
<path d="M6.96 13.92C10.8039 13.92 13.92 10.8039 13.92 6.96C13.92 3.1161 10.8039 0 6.96 0C3.1161 0 0 3.1161 0 6.96C0 10.8039 3.1161 13.92 6.96 13.92Z" fill="#28A8EA"/>
<path d="M17.0401 24C20.884 24 24.0001 20.8839 24.0001 17.04C24.0001 13.1961 20.884 10.08 17.0401 10.08C13.1962 10.08 10.0801 13.1961 10.0801 17.04C10.0801 20.8839 13.1962 24 17.0401 24Z" fill="#28A8EA"/>
<path d="M12 23.52C18.3623 23.52 23.52 18.3623 23.52 12C23.52 5.63765 18.3623 0.47998 12 0.47998C5.63765 0.47998 0.47998 5.63765 0.47998 12C0.47998 18.3623 5.63765 23.52 12 23.52Z" fill="#28A8EA"/>
<path fill-rule="evenodd" clip-rule="evenodd" d="M9.0124 11.7813C8.56205 11.4846 8.1863 11.0879 7.91455 10.6221C7.65195 10.1302 7.5223 9.5784 7.53845 9.02105C7.51845 8.31375 7.7598 7.62385 8.21635 7.08325C8.6907 6.54035 9.3004 6.1328 9.98345 5.9021C10.7265 5.63975 11.5094 5.508 12.2974 5.5128C12.813 5.5079 13.3281 5.5474 13.837 5.6309C14.201 5.68715 14.5586 5.7795 14.9043 5.9065C15.2219 6.01405 15.5087 6.1972 15.7398 6.44015C15.9102 6.63995 16.0019 6.895 15.9979 7.1576C16.004 7.29395 15.9832 7.4302 15.9367 7.55855C15.8901 7.6869 15.8188 7.80485 15.7267 7.9056C15.6394 7.99845 15.5335 8.0718 15.4159 8.1208C15.2983 8.16985 15.1717 8.1934 15.0443 8.18995C14.869 8.18865 14.696 8.14985 14.5369 8.07615C14.1453 7.9009 13.7419 7.7533 13.3296 7.6344C12.95 7.5344 12.5587 7.48585 12.1662 7.49005C11.655 7.4711 11.1492 7.6002 10.7096 7.86185C10.5239 7.9746 10.3719 8.1352 10.2696 8.32685C10.1673 8.51845 10.1183 8.73405 10.1278 8.9511C10.1251 9.23575 10.2333 9.51035 10.4296 9.71655C10.663 9.95855 10.9388 10.1557 11.2432 10.2983C11.5844 10.4676 12.0933 10.6921 12.7698 10.972C12.8447 10.9957 12.9179 11.025 12.9885 11.0595C13.6486 11.3206 14.2815 11.6458 14.8781 12.0306C15.3493 12.3379 15.7467 12.7457 16.0416 13.2248C16.3318 13.7281 16.4772 14.3019 16.4615 14.8827C16.4859 15.5941 16.282 16.2946 15.8797 16.8818C15.4701 17.4377 14.9034 17.8582 14.2526 18.0891C13.4685 18.3692 12.6399 18.5041 11.8075 18.4872C10.6635 18.5275 9.52485 18.3123 8.4745 17.8573C8.2057 17.7377 7.97 17.5546 7.78775 17.3236C7.6367 17.1121 7.5584 16.8573 7.56465 16.5975C7.5571 16.4604 7.5794 16.3233 7.63 16.1957C7.6806 16.068 7.75825 15.9529 7.85765 15.8582C8.0663 15.6754 8.33725 15.5799 8.61435 15.5914C8.9228 15.5956 9.22575 15.6736 9.4979 15.8188C9.83605 15.9881 10.1029 16.1149 10.2984 16.1995C10.5217 16.293 10.7531 16.3662 10.9896 16.4181C11.2811 16.4822 11.5789 16.513 11.8774 16.51C12.4051 16.5475 12.9302 16.4074 13.369 16.112C13.5333 15.9834 13.6646 15.8175 13.7521 15.6281C13.8396 15.4387 13.8807 15.2312 13.872 15.0227C13.8726 14.7268 13.76 14.4419 13.5571 14.2265C13.289 13.9504 12.9754 13.7225 12.6298 13.5529C12.2215 13.3372 11.647 13.0747 10.9064 12.7655C10.2438 12.5015 9.60925 12.1718 9.0124 11.7813Z" fill="white"/>
<path opacity="0.1" fill-rule="evenodd" clip-rule="evenodd" d="M9.13435 0.350413C8.83 0.248516 8.51885 0.168315 8.20315 0.110413C6.3079 0.71865 4.58502 1.77014 3.17755 3.17762C1.77008 4.58509 0.71859 6.30795 0.110352 8.2032C0.168265 8.5189 0.248465 8.83005 0.350351 9.1344C0.435445 9.40995 0.543005 9.67805 0.67195 9.936C1.08889 7.63215 2.19941 5.51055 3.85495 3.85502C5.5105 2.19948 7.6321 1.08896 9.93595 0.67201C9.678 0.54308 9.4099 0.435522 9.13435 0.350413Z" fill="black"/>
<path opacity="0.1" fill-rule="evenodd" clip-rule="evenodd" d="M9.1346 0.350403C7.0088 0.87471 5.0668 1.9702 3.51859 3.5184C1.97038 5.0666 0.874895 7.0086 0.350586 9.1344C0.435679 9.40995 0.54324 9.67805 0.672185 9.936C1.08913 7.63215 2.19965 5.51055 3.85518 3.855C5.5107 2.19946 7.63235 1.08894 9.9362 0.672005C9.67825 0.54307 9.41015 0.435512 9.1346 0.350403Z" fill="black"/>
<path opacity="0.1" fill-rule="evenodd" clip-rule="evenodd" d="M23.6496 14.8656C23.5645 14.5901 23.4569 14.322 23.328 14.064C22.9111 16.3679 21.8005 18.4895 20.145 20.145C18.4895 21.8005 16.3679 22.9111 14.064 23.328C14.3219 23.4569 14.59 23.5645 14.8656 23.6496C15.1699 23.7515 15.4811 23.8317 15.7968 23.8896C17.6921 23.2814 19.4149 22.2299 20.8224 20.8224C22.2299 19.4149 23.2814 17.6921 23.8896 15.7968C23.8317 15.4811 23.7515 15.1699 23.6496 14.8656Z" fill="black"/>
<path opacity="0.1" fill-rule="evenodd" clip-rule="evenodd" d="M23.328 14.064C22.9111 16.3679 21.8005 18.4895 20.145 20.145C18.4895 21.8005 16.3679 22.9111 14.064 23.328C14.3219 23.4569 14.59 23.5645 14.8656 23.6496C16.9914 23.1253 18.9334 22.0298 20.4816 20.4816C22.0298 18.9334 23.1253 16.9914 23.6496 14.8656C23.5645 14.5901 23.4569 14.322 23.328 14.064Z" fill="black"/>
</svg>
