<svg width="153" height="47" viewBox="0 0 153 47" fill="none" xmlns="http://www.w3.org/2000/svg">
<g clip-path="url(#clip0)">
<rect width="153" height="47" fill="white"/>
<path d="M19.4961 15.5376C19.4255 17.0715 19.0117 18.4287 18.2549 19.6094C17.498 20.7799 16.4334 21.6882 15.061 22.334C13.6987 22.9798 12.1396 23.3027 10.3838 23.3027C7.48763 23.3027 5.20703 22.3592 3.54199 20.4722C1.87695 18.5851 1.04443 15.9211 1.04443 12.48V11.3901C1.04443 9.23063 1.41781 7.34359 2.16455 5.729C2.92139 4.10433 4.00618 2.85303 5.41895 1.9751C6.83171 1.08708 8.46647 0.643066 10.3232 0.643066C12.9974 0.643066 15.1468 1.34945 16.7715 2.76221C18.3962 4.16488 19.3195 6.10238 19.5415 8.57471H14.2437C14.2033 7.23258 13.8652 6.26888 13.2295 5.68359C12.5938 5.09831 11.625 4.80566 10.3232 4.80566C9.0013 4.80566 8.03255 5.30013 7.41699 6.28906C6.80143 7.27799 6.47852 8.85726 6.44824 11.0269V12.5859C6.44824 14.9372 6.74089 16.6174 7.32617 17.6265C7.92155 18.6356 8.94076 19.1401 10.3838 19.1401C11.6048 19.1401 12.5382 18.8525 13.1841 18.2773C13.8299 17.7021 14.173 16.7889 14.2134 15.5376H19.4961ZM40.4302 23H35.1475V13.7969H27.3218V23H22.0088V0.960938H27.3218V9.70996H35.1475V0.960938H40.4302V23ZM56.5962 18.8828H49.3154L48.0439 23H42.3677L50.4507 0.960938H55.4458L63.5894 23H57.8828L56.5962 18.8828ZM50.5869 14.7808H55.3247L52.9482 7.13672L50.5869 14.7808ZM73.3979 15.2197H70.522V23H65.209V0.960938H73.8823C76.4959 0.960938 78.5394 1.54118 80.0127 2.70166C81.486 3.86214 82.2227 5.50195 82.2227 7.62109C82.2227 9.15495 81.9098 10.4264 81.2842 11.4355C80.6686 12.4447 79.6999 13.262 78.3779 13.8877L82.9795 22.7729V23H77.2881L73.3979 15.2197ZM70.522 11.1177H73.8823C74.8914 11.1177 75.6483 10.8553 76.1528 10.3306C76.6675 9.79574 76.9248 9.05404 76.9248 8.10547C76.9248 7.1569 76.6675 6.4152 76.1528 5.88037C75.6382 5.33545 74.8813 5.06299 73.8823 5.06299H70.522V11.1177ZM92.4097 0.960938L97.3291 16.2944L102.233 0.960938H109.227V23H103.898V17.8535L104.413 7.31836L99.085 23H95.5732L90.23 7.30322L90.7446 17.8535V23H85.4316V0.960938H92.4097ZM129.903 0.960938V15.3862C129.903 17.021 129.555 18.4388 128.859 19.6396C128.163 20.8304 127.164 21.7386 125.862 22.3643C124.56 22.9899 123.021 23.3027 121.245 23.3027C118.561 23.3027 116.447 22.6064 114.903 21.2139C113.359 19.8213 112.572 17.9141 112.542 15.4922V0.960938H117.885V15.5981C117.945 18.0099 119.065 19.2158 121.245 19.2158C122.345 19.2158 123.178 18.9131 123.743 18.3076C124.308 17.7021 124.59 16.7183 124.59 15.356V0.960938H129.903ZM145.418 18.8828H138.138L136.866 23H131.19L139.273 0.960938H144.268L152.412 23H146.705L145.418 18.8828ZM139.409 14.7808H144.147L141.771 7.13672L139.409 14.7808Z" fill="#222222"/>
<path d="M10.3271 31.5918H6.21387V43H4.53516V31.5918H0.430664V30.2031H10.3271V31.5918ZM15.8994 34.9492C15.6533 34.9082 15.3867 34.8877 15.0996 34.8877C14.0332 34.8877 13.3096 35.3418 12.9287 36.25V43H11.3027V33.4902H12.8848L12.9111 34.5889C13.4443 33.7393 14.2002 33.3145 15.1787 33.3145C15.4951 33.3145 15.7354 33.3555 15.8994 33.4375V34.9492ZM22.9219 43C22.8281 42.8125 22.752 42.4785 22.6934 41.998C21.9375 42.7832 21.0352 43.1758 19.9863 43.1758C19.0488 43.1758 18.2783 42.9121 17.6748 42.3848C17.0771 41.8516 16.7783 41.1777 16.7783 40.3633C16.7783 39.373 17.1533 38.6055 17.9033 38.0605C18.6592 37.5098 19.7197 37.2344 21.085 37.2344H22.667V36.4873C22.667 35.9189 22.4971 35.4678 22.1572 35.1338C21.8174 34.7939 21.3164 34.624 20.6543 34.624C20.0742 34.624 19.5879 34.7705 19.1953 35.0635C18.8027 35.3564 18.6064 35.7109 18.6064 36.127H16.9717C16.9717 35.6523 17.1387 35.1953 17.4727 34.7559C17.8125 34.3105 18.2695 33.959 18.8438 33.7012C19.4238 33.4434 20.0596 33.3145 20.751 33.3145C21.8467 33.3145 22.7051 33.5898 23.3262 34.1406C23.9473 34.6855 24.2695 35.4385 24.293 36.3994V40.7764C24.293 41.6494 24.4043 42.3438 24.627 42.8594V43H22.9219ZM20.2236 41.7607C20.7334 41.7607 21.2168 41.6289 21.6738 41.3652C22.1309 41.1016 22.4619 40.7588 22.667 40.3369V38.3857H21.3926C19.4004 38.3857 18.4043 38.9688 18.4043 40.1348C18.4043 40.6445 18.5742 41.043 18.9141 41.3301C19.2539 41.6172 19.6904 41.7607 20.2236 41.7607ZM28.3799 33.4902L28.4326 34.6855C29.1592 33.7715 30.1084 33.3145 31.2803 33.3145C33.29 33.3145 34.3037 34.4482 34.3213 36.7158V43H32.6953V36.707C32.6895 36.0215 32.5312 35.5146 32.2207 35.1865C31.916 34.8584 31.4385 34.6943 30.7881 34.6943C30.2607 34.6943 29.7979 34.835 29.3994 35.1162C29.001 35.3975 28.6904 35.7666 28.4678 36.2236V43H26.8418V33.4902H28.3799ZM42.3105 40.4775C42.3105 40.0381 42.1436 39.6982 41.8096 39.458C41.4814 39.2119 40.9043 39.001 40.0781 38.8252C39.2578 38.6494 38.6045 38.4385 38.1182 38.1924C37.6377 37.9463 37.2803 37.6533 37.0459 37.3135C36.8174 36.9736 36.7031 36.5693 36.7031 36.1006C36.7031 35.3213 37.0312 34.6621 37.6875 34.123C38.3496 33.584 39.1934 33.3145 40.2188 33.3145C41.2969 33.3145 42.1699 33.5928 42.8379 34.1494C43.5117 34.7061 43.8486 35.418 43.8486 36.2852H42.2139C42.2139 35.8398 42.0234 35.4561 41.6426 35.1338C41.2676 34.8115 40.793 34.6504 40.2188 34.6504C39.627 34.6504 39.1641 34.7793 38.8301 35.0371C38.4961 35.2949 38.3291 35.6318 38.3291 36.0479C38.3291 36.4404 38.4844 36.7363 38.7949 36.9355C39.1055 37.1348 39.665 37.3252 40.4736 37.5068C41.2881 37.6885 41.9473 37.9053 42.4512 38.1572C42.9551 38.4092 43.3271 38.7139 43.5674 39.0713C43.8135 39.4229 43.9365 39.8535 43.9365 40.3633C43.9365 41.2129 43.5967 41.8955 42.917 42.4111C42.2373 42.9209 41.3555 43.1758 40.2715 43.1758C39.5098 43.1758 38.8359 43.041 38.25 42.7715C37.6641 42.502 37.2041 42.127 36.8701 41.6465C36.542 41.1602 36.3779 40.6357 36.3779 40.0732H38.0039C38.0332 40.6182 38.25 41.0518 38.6543 41.374C39.0645 41.6904 39.6035 41.8486 40.2715 41.8486C40.8867 41.8486 41.3789 41.7256 41.748 41.4795C42.123 41.2275 42.3105 40.8936 42.3105 40.4775ZM47.8213 43H46.1953V29.5H47.8213V43ZM56.3027 43C56.209 42.8125 56.1328 42.4785 56.0742 41.998C55.3184 42.7832 54.416 43.1758 53.3672 43.1758C52.4297 43.1758 51.6592 42.9121 51.0557 42.3848C50.458 41.8516 50.1592 41.1777 50.1592 40.3633C50.1592 39.373 50.5342 38.6055 51.2842 38.0605C52.04 37.5098 53.1006 37.2344 54.4658 37.2344H56.0479V36.4873C56.0479 35.9189 55.8779 35.4678 55.5381 35.1338C55.1982 34.7939 54.6973 34.624 54.0352 34.624C53.4551 34.624 52.9688 34.7705 52.5762 35.0635C52.1836 35.3564 51.9873 35.7109 51.9873 36.127H50.3525C50.3525 35.6523 50.5195 35.1953 50.8535 34.7559C51.1934 34.3105 51.6504 33.959 52.2246 33.7012C52.8047 33.4434 53.4404 33.3145 54.1318 33.3145C55.2275 33.3145 56.0859 33.5898 56.707 34.1406C57.3281 34.6855 57.6504 35.4385 57.6738 36.3994V40.7764C57.6738 41.6494 57.7852 42.3438 58.0078 42.8594V43H56.3027ZM53.6045 41.7607C54.1143 41.7607 54.5977 41.6289 55.0547 41.3652C55.5117 41.1016 55.8428 40.7588 56.0479 40.3369V38.3857H54.7734C52.7812 38.3857 51.7852 38.9688 51.7852 40.1348C51.7852 40.6445 51.9551 41.043 52.2949 41.3301C52.6348 41.6172 53.0713 41.7607 53.6045 41.7607ZM62.4287 31.1875V33.4902H64.2041V34.7471H62.4287V40.6445C62.4287 41.0254 62.5078 41.3125 62.666 41.5059C62.8242 41.6934 63.0938 41.7871 63.4746 41.7871C63.6621 41.7871 63.9199 41.752 64.248 41.6816V43C63.8203 43.1172 63.4043 43.1758 63 43.1758C62.2734 43.1758 61.7256 42.9561 61.3564 42.5166C60.9873 42.0771 60.8027 41.4531 60.8027 40.6445V34.7471H59.0713V33.4902H60.8027V31.1875H62.4287ZM67.8779 43H66.252V33.4902H67.8779V43ZM66.1201 30.9678C66.1201 30.7041 66.1992 30.4814 66.3574 30.2998C66.5215 30.1182 66.7617 30.0273 67.0781 30.0273C67.3945 30.0273 67.6348 30.1182 67.7988 30.2998C67.9629 30.4814 68.0449 30.7041 68.0449 30.9678C68.0449 31.2314 67.9629 31.4512 67.7988 31.627C67.6348 31.8027 67.3945 31.8906 67.0781 31.8906C66.7617 31.8906 66.5215 31.8027 66.3574 31.627C66.1992 31.4512 66.1201 31.2314 66.1201 30.9678ZM70.0576 38.1572C70.0576 37.2256 70.2393 36.3877 70.6025 35.6436C70.9717 34.8994 71.4814 34.3252 72.1318 33.9209C72.7881 33.5166 73.5352 33.3145 74.373 33.3145C75.668 33.3145 76.7139 33.7627 77.5107 34.6592C78.3135 35.5557 78.7148 36.748 78.7148 38.2363V38.3506C78.7148 39.2764 78.5361 40.1084 78.1787 40.8467C77.8271 41.5791 77.3203 42.1504 76.6582 42.5605C76.002 42.9707 75.2461 43.1758 74.3906 43.1758C73.1016 43.1758 72.0557 42.7275 71.2529 41.8311C70.4561 40.9346 70.0576 39.748 70.0576 38.2715V38.1572ZM71.6924 38.3506C71.6924 39.4053 71.9355 40.252 72.4219 40.8906C72.9141 41.5293 73.5703 41.8486 74.3906 41.8486C75.2168 41.8486 75.873 41.5264 76.3594 40.8818C76.8457 40.2314 77.0889 39.3232 77.0889 38.1572C77.0889 37.1143 76.8398 36.2705 76.3418 35.626C75.8496 34.9756 75.1934 34.6504 74.373 34.6504C73.5703 34.6504 72.9229 34.9697 72.4307 35.6084C71.9385 36.2471 71.6924 37.1611 71.6924 38.3506ZM82.292 33.4902L82.3447 34.6855C83.0713 33.7715 84.0205 33.3145 85.1924 33.3145C87.2021 33.3145 88.2158 34.4482 88.2334 36.7158V43H86.6074V36.707C86.6016 36.0215 86.4434 35.5146 86.1328 35.1865C85.8281 34.8584 85.3506 34.6943 84.7002 34.6943C84.1729 34.6943 83.71 34.835 83.3115 35.1162C82.9131 35.3975 82.6025 35.7666 82.3799 36.2236V43H80.7539V33.4902H82.292ZM102.472 39.6602H97.1104L95.9062 43H94.166L99.0527 30.2031H100.529L105.425 43H103.693L102.472 39.6602ZM97.6201 38.2715H101.971L99.791 32.2861L97.6201 38.2715ZM106.506 38.166C106.506 36.6836 106.849 35.5059 107.534 34.6328C108.22 33.7539 109.128 33.3145 110.259 33.3145C111.419 33.3145 112.324 33.7246 112.975 34.5449L113.054 33.4902H114.539V42.7715C114.539 44.002 114.173 44.9717 113.44 45.6807C112.714 46.3896 111.735 46.7441 110.505 46.7441C109.819 46.7441 109.148 46.5977 108.492 46.3047C107.836 46.0117 107.335 45.6104 106.989 45.1006L107.833 44.125C108.53 44.9863 109.383 45.417 110.391 45.417C111.182 45.417 111.797 45.1943 112.236 44.749C112.682 44.3037 112.904 43.6768 112.904 42.8682V42.0508C112.254 42.8008 111.366 43.1758 110.241 43.1758C109.128 43.1758 108.226 42.7275 107.534 41.8311C106.849 40.9346 106.506 39.7129 106.506 38.166ZM108.141 38.3506C108.141 39.4229 108.36 40.2666 108.8 40.8818C109.239 41.4912 109.854 41.7959 110.646 41.7959C111.671 41.7959 112.424 41.3301 112.904 40.3984V36.0566C112.406 35.1484 111.659 34.6943 110.663 34.6943C109.872 34.6943 109.254 35.002 108.809 35.6172C108.363 36.2324 108.141 37.1436 108.141 38.3506ZM120.946 43.1758C119.657 43.1758 118.608 42.7539 117.8 41.9102C116.991 41.0605 116.587 39.9268 116.587 38.5088V38.21C116.587 37.2666 116.766 36.4258 117.123 35.6875C117.486 34.9434 117.99 34.3633 118.635 33.9473C119.285 33.5254 119.988 33.3145 120.744 33.3145C121.98 33.3145 122.941 33.7217 123.627 34.5361C124.312 35.3506 124.655 36.5166 124.655 38.0342V38.7109H118.213C118.236 39.6484 118.509 40.4072 119.03 40.9873C119.558 41.5615 120.226 41.8486 121.034 41.8486C121.608 41.8486 122.095 41.7314 122.493 41.4971C122.892 41.2627 123.24 40.9521 123.539 40.5654L124.532 41.3389C123.735 42.5635 122.54 43.1758 120.946 43.1758ZM120.744 34.6504C120.088 34.6504 119.537 34.8906 119.092 35.3711C118.646 35.8457 118.371 36.5137 118.266 37.375H123.029V37.252C122.982 36.4258 122.76 35.7871 122.361 35.3359C121.963 34.8789 121.424 34.6504 120.744 34.6504ZM128.083 33.4902L128.136 34.6855C128.862 33.7715 129.812 33.3145 130.983 33.3145C132.993 33.3145 134.007 34.4482 134.024 36.7158V43H132.398V36.707C132.393 36.0215 132.234 35.5146 131.924 35.1865C131.619 34.8584 131.142 34.6943 130.491 34.6943C129.964 34.6943 129.501 34.835 129.103 35.1162C128.704 35.3975 128.394 35.7666 128.171 36.2236V43H126.545V33.4902H128.083ZM140.291 41.8486C140.871 41.8486 141.378 41.6729 141.812 41.3213C142.245 40.9697 142.485 40.5303 142.532 40.0029H144.07C144.041 40.5479 143.854 41.0664 143.508 41.5586C143.162 42.0508 142.699 42.4434 142.119 42.7363C141.545 43.0293 140.936 43.1758 140.291 43.1758C138.996 43.1758 137.965 42.7451 137.197 41.8838C136.436 41.0166 136.055 39.833 136.055 38.333V38.0605C136.055 37.1348 136.225 36.3115 136.564 35.5908C136.904 34.8701 137.391 34.3105 138.023 33.9121C138.662 33.5137 139.415 33.3145 140.282 33.3145C141.349 33.3145 142.233 33.6338 142.937 34.2725C143.646 34.9111 144.023 35.7402 144.07 36.7598H142.532C142.485 36.1445 142.251 35.6406 141.829 35.248C141.413 34.8496 140.897 34.6504 140.282 34.6504C139.456 34.6504 138.814 34.9492 138.357 35.5469C137.906 36.1387 137.681 36.9971 137.681 38.1221V38.4297C137.681 39.5254 137.906 40.3691 138.357 40.9609C138.809 41.5527 139.453 41.8486 140.291 41.8486ZM149.01 40.6182L151.225 33.4902H152.965L149.142 44.4678C148.55 46.0498 147.609 46.8408 146.32 46.8408L146.013 46.8145L145.406 46.7002V45.3818L145.846 45.417C146.396 45.417 146.824 45.3057 147.129 45.083C147.439 44.8604 147.694 44.4531 147.894 43.8613L148.254 42.8945L144.861 33.4902H146.637L149.01 40.6182Z" fill="#005DDC"/>
</g>
<defs>
<clipPath id="clip0">
<rect width="153" height="47" fill="white"/>
</clipPath>
</defs>
</svg>
