<svg width="48" height="48" viewBox="0 0 48 48" fill="none" xmlns="http://www.w3.org/2000/svg">
<path d="M41.249 5.25H6.74902C5.91934 5.25 5.24902 5.92031 5.24902 6.75V41.25C5.24902 42.0797 5.91934 42.75 6.74902 42.75H41.249C42.0787 42.75 42.749 42.0797 42.749 41.25V6.75C42.749 5.92031 42.0787 5.25 41.249 5.25ZM36.9178 16.1953H33.9225C31.574 16.1953 31.1193 17.3109 31.1193 18.9516V22.5656H36.7256L35.9943 28.2234H31.1193V42.75H25.274V28.2281H20.385V22.5656H25.274V18.3937C25.274 13.5516 28.2318 10.9125 32.5537 10.9125C34.6256 10.9125 36.4021 11.0672 36.9225 11.1375V16.1953H36.9178Z" fill="white"/>
</svg>
