<svg width="48" height="48" viewBox="0 0 48 48" fill="none" xmlns="http://www.w3.org/2000/svg">
<path d="M41.251 5.25H6.75098C5.92129 5.25 5.25098 5.92031 5.25098 6.75V41.25C5.25098 42.0797 5.92129 42.75 6.75098 42.75H41.251C42.0807 42.75 42.751 42.0797 42.751 41.25V6.75C42.751 5.92031 42.0807 5.25 41.251 5.25ZM16.3744 37.2047H10.8104V19.3078H16.3744V37.2047ZM13.5947 16.8609C12.9569 16.8609 12.3334 16.6718 11.803 16.3174C11.2727 15.9631 10.8593 15.4594 10.6152 14.8701C10.3711 14.2808 10.3073 13.6324 10.4317 13.0068C10.5561 12.3812 10.8633 11.8065 11.3143 11.3555C11.7653 10.9045 12.34 10.5973 12.9656 10.4729C13.5911 10.3485 14.2396 10.4123 14.8289 10.6564C15.4182 10.9005 15.9218 11.3139 16.2762 11.8442C16.6306 12.3746 16.8197 12.9981 16.8197 13.6359C16.815 15.4172 15.3713 16.8609 13.5947 16.8609ZM37.2057 37.2047H31.6463V28.5C31.6463 26.4234 31.6088 23.7562 28.7541 23.7562C25.8619 23.7562 25.4166 26.0156 25.4166 28.35V37.2047H19.8619V19.3078H25.1963V21.7547H25.2713C26.0119 20.3484 27.826 18.8625 30.5354 18.8625C36.1697 18.8625 37.2057 22.5703 37.2057 27.3891V37.2047Z" fill="white"/>
</svg>
